<?xml version="1.0" standalone="no"?>
<!DOCTYPE svg PUBLIC "-//W3C//DTD SVG 20010904//EN"
 "http://www.w3.org/TR/2001/REC-SVG-20010904/DTD/svg10.dtd">
<svg version="1.0" xmlns="http://www.w3.org/2000/svg"
 width="4320.000000pt" height="1684.000000pt" viewBox="0 0 4320.000000 1684.000000"
 preserveAspectRatio="xMidYMid meet">

<g transform="translate(0.000000,1684.000000) scale(0.100000,-0.100000)"
fill="#000000" stroke="none">
<path d="M0 8420 l0 -8420 21600 0 21600 0 0 8420 0 8420 -21600 0 -21600 0 0
-8420z m20000 7353 c528 0 619 -2 643 -14 9 -6 22 -7 27 -4 6 3 10 2 10 -4 0
-7 8 -7 24 -1 33 12 50 -10 65 -85 15 -82 16 -9246 1 -9275 -11 -20 -54 -27
-76 -12 -6 4 -17 24 -23 44 -7 21 -17 40 -22 44 -5 3 -17 23 -25 45 -9 21 -20
36 -25 33 -5 -3 -9 0 -9 5 0 6 -7 11 -15 11 -7 0 -18 8 -24 18 -14 24 -18 6
-25 -102 -6 -108 -22 -138 -67 -129 -16 3 -47 11 -67 18 -34 12 -37 16 -42 60
l-5 47 -35 -54 c-34 -52 -36 -53 -77 -50 -23 2 -51 -1 -62 -8 -15 -7 -21 -8
-21 0 0 7 -32 10 -97 8 l-98 -3 1 45 c0 55 7 90 19 110 5 8 11 51 13 96 4 77
3 82 -23 108 -25 25 -27 25 -22 7 4 -17 -1 -22 -33 -31 l-38 -10 2 -163 1
-162 -59 -3 c-32 -2 -63 1 -69 7 -6 6 -9 71 -8 163 l2 152 -34 31 c-25 21 -37
42 -42 71 -9 60 3 66 142 67 269 1 292 -1 316 -27 32 -35 47 -54 47 -60 0 -3
14 -38 32 -77 l31 -70 17 44 c20 51 70 127 108 162 25 23 27 31 26 98 -1 73
-5 85 -91 264 -8 17 -18 46 -22 65 -4 18 -13 32 -19 31 -6 -1 -14 12 -17 30
-4 17 -16 49 -26 69 -11 21 -19 47 -19 58 0 11 -6 23 -14 26 -8 3 -18 20 -22
37 -3 18 -15 51 -25 74 -11 23 -19 51 -19 62 0 11 -6 26 -14 34 -8 8 -19 32
-25 55 -6 22 -18 53 -26 69 -8 15 -15 35 -15 44 0 9 -6 22 -14 28 -8 7 -18 27
-22 44 -4 18 -15 48 -25 67 -11 19 -19 45 -19 58 0 12 -6 25 -14 28 -8 3 -17
27 -21 55 -4 27 -13 55 -20 63 -7 7 -16 34 -20 60 -6 36 -10 44 -20 36 -14
-11 -25 14 -25 58 0 12 -6 25 -14 28 -8 3 -18 20 -21 37 -9 45 -42 129 -86
223 -22 44 -39 88 -39 96 0 9 -19 54 -41 100 -23 46 -49 101 -59 123 -10 22
-27 61 -39 86 -12 25 -21 53 -21 62 0 9 -4 19 -10 22 -5 3 -16 27 -24 53 -31
96 -58 166 -72 186 -8 11 -14 27 -14 36 0 8 -8 37 -19 65 -10 27 -29 84 -42
125 -13 41 -29 82 -35 90 -7 8 -15 34 -19 58 -4 24 -13 46 -21 49 -7 3 -16 20
-20 39 -3 18 -15 43 -25 55 -10 12 -19 32 -19 44 0 13 -7 28 -15 35 -7 6 -17
32 -21 56 -3 25 -12 51 -19 58 -8 7 -17 30 -21 52 -7 40 -52 145 -65 154 -10
7 -50 119 -56 160 -3 19 -11 42 -19 51 -8 8 -17 31 -20 50 -4 19 -15 43 -24
54 -10 11 -21 35 -25 53 -3 17 -10 32 -15 32 -4 0 -10 8 -13 18 -22 70 -108
314 -122 342 -9 19 -31 64 -50 100 -19 36 -35 74 -35 85 0 11 -6 32 -14 47 -8
15 -17 42 -21 60 -4 18 -13 44 -20 58 -18 33 -65 176 -65 195 0 21 -20 19 -21
-2 -2 -29 -17 27 -18 66 -1 28 -3 31 -15 22 -12 -10 -15 -4 -21 31 -5 30 -18
54 -43 81 -20 20 -40 37 -45 37 -20 0 -97 -44 -97 -56 0 -6 -9 -14 -20 -17
-12 -3 -20 -14 -20 -26 0 -12 -5 -20 -11 -19 -7 2 -18 -19 -25 -47 -25 -98
-51 -180 -62 -202 -7 -12 -12 -29 -12 -38 0 -23 -59 -145 -70 -145 -6 0 -10
-6 -10 -13 0 -7 -8 -28 -19 -47 -10 -19 -22 -51 -26 -70 -11 -51 -47 -163 -57
-176 -16 -22 -58 -105 -58 -116 0 -6 -9 -30 -20 -54 -11 -24 -29 -64 -40 -88
-11 -24 -20 -49 -20 -55 0 -11 -41 -98 -76 -161 -7 -14 -14 -33 -14 -43 0 -10
-7 -25 -15 -33 -8 -9 -15 -27 -15 -42 -1 -15 -8 -45 -16 -67 -9 -22 -20 -61
-26 -87 -6 -27 -16 -48 -23 -48 -16 0 -25 -22 -25 -61 0 -16 -4 -29 -9 -29 -5
0 -12 -15 -16 -32 -4 -18 -15 -51 -25 -73 -32 -69 -60 -145 -60 -164 0 -10 -9
-29 -19 -43 -11 -13 -23 -36 -26 -51 -4 -14 -13 -31 -21 -38 -7 -6 -16 -26
-20 -45 -3 -19 -10 -36 -14 -39 -5 -3 -14 -22 -21 -43 -6 -20 -26 -68 -44
-107 -18 -38 -45 -106 -60 -150 -16 -44 -35 -89 -42 -100 -7 -11 -13 -26 -13
-35 0 -8 -7 -28 -15 -44 -8 -16 -22 -54 -29 -85 -22 -86 -48 -155 -62 -164 -7
-4 -15 -20 -19 -36 -3 -16 -13 -32 -21 -35 -8 -3 -14 -15 -14 -26 0 -11 -7
-37 -16 -58 -8 -20 -20 -59 -25 -87 -5 -27 -15 -54 -23 -60 -7 -5 -16 -27 -20
-47 -4 -20 -11 -38 -15 -40 -9 -3 -37 -75 -65 -168 -34 -110 -92 -240 -106
-240 -5 0 -12 -14 -15 -32 -4 -17 -13 -38 -20 -45 -7 -7 -16 -36 -20 -65 -4
-29 -11 -57 -15 -63 -4 -5 -13 -33 -20 -62 -6 -28 -17 -54 -25 -56 -7 -3 -15
-18 -19 -32 -4 -15 -13 -34 -21 -41 -7 -7 -16 -31 -20 -53 -4 -22 -13 -45 -21
-52 -8 -6 -14 -19 -14 -28 -1 -9 -9 -34 -20 -56 -11 -22 -19 -46 -20 -54 0
-17 -48 -121 -65 -141 -7 -8 -15 -32 -19 -52 -4 -20 -12 -38 -18 -40 -6 -2
-23 -48 -39 -103 -15 -54 -32 -101 -37 -104 -6 -3 -24 -44 -42 -91 -68 -178
-118 -262 -171 -291 -14 -7 -22 -2 -39 26 -12 19 -25 35 -30 35 -5 0 -12 10
-16 23 -3 12 -13 29 -21 38 -10 12 -15 54 -19 140 -3 68 -8 135 -11 149 -6 23
-7 23 -13 -10 -4 -23 -9 8 -14 95 -5 72 -12 153 -18 180 -5 28 -12 77 -15 110
-5 64 -22 111 -23 65 0 -20 -2 -22 -10 -10 -5 8 -10 49 -10 90 0 95 -17 297
-36 416 -8 50 -14 108 -14 127 0 41 -17 59 -22 25 -2 -13 -7 27 -12 87 -4 61
-11 126 -16 145 -5 19 -11 62 -15 95 -7 71 -15 116 -24 130 -3 6 -6 12 -6 15
-1 3 -6 30 -12 60 -7 30 -14 98 -18 150 -9 153 -34 351 -50 400 -8 25 -19 106
-24 180 -6 74 -16 169 -22 210 -13 82 -28 123 -29 80 -3 -54 -19 14 -19 81 -1
36 -8 117 -16 180 -9 63 -20 152 -26 199 -5 46 -16 107 -24 135 -7 27 -16 86
-20 130 -4 44 -12 98 -18 120 -6 22 -12 45 -12 50 -13 124 -17 154 -21 178 -3
15 -9 25 -13 22 -5 -2 -13 69 -20 158 -7 89 -15 165 -17 169 -3 4 -12 64 -20
134 -8 69 -18 134 -23 143 -5 9 -12 52 -16 96 -4 44 -13 109 -20 145 -8 36
-16 86 -20 112 -3 26 -14 56 -23 67 -15 18 -23 19 -72 11 -36 -6 -59 -16 -68
-29 -8 -11 -22 -30 -33 -42 -10 -12 -19 -29 -19 -37 0 -8 -6 -12 -14 -9 -17 7
-22 -5 -25 -63 -1 -25 -6 -46 -11 -48 -5 -2 -14 -21 -20 -43 -6 -21 -16 -39
-23 -39 -13 -1 -52 -78 -61 -121 -11 -49 -82 -188 -103 -202 -7 -4 -13 -14
-13 -22 0 -24 -55 -151 -73 -169 -9 -10 -17 -24 -17 -32 0 -8 -4 -14 -9 -14
-5 0 -16 -21 -24 -47 -36 -113 -69 -189 -121 -278 -37 -63 -86 -161 -86 -172
0 -6 -7 -16 -15 -23 -8 -7 -15 -19 -15 -27 0 -8 -12 -40 -26 -71 -14 -31 -35
-77 -46 -102 -11 -25 -23 -52 -28 -60 -25 -42 -100 -203 -106 -227 -4 -15 -16
-41 -26 -58 -10 -16 -18 -37 -18 -46 0 -9 -7 -19 -15 -23 -8 -3 -15 -11 -15
-18 0 -7 -9 -30 -20 -51 -11 -20 -20 -42 -20 -47 0 -9 -20 -46 -87 -158 -30
-50 -108 -211 -118 -242 -4 -14 -13 -32 -20 -40 -7 -8 -16 -26 -20 -40 -7 -27
-20 -58 -53 -130 -11 -25 -32 -71 -46 -102 -56 -125 -105 -219 -121 -233 -6
-5 -22 -37 -34 -70 -13 -33 -44 -103 -68 -155 -25 -52 -52 -111 -60 -130 -9
-19 -21 -46 -29 -60 -18 -34 -60 -122 -92 -195 -15 -33 -35 -67 -44 -77 -10
-10 -18 -25 -18 -33 0 -8 -4 -15 -8 -15 -12 0 -54 -98 -95 -221 -58 -175 -77
-199 -157 -199 -64 0 -81 22 -110 145 -13 59 -30 106 -40 115 -21 17 -50 73
-50 93 0 8 -9 26 -20 40 -11 14 -20 32 -20 40 0 8 -7 20 -15 27 -8 7 -20 30
-25 51 -6 22 -15 39 -20 39 -6 0 -10 9 -10 20 0 23 -20 70 -31 70 -4 0 -10 18
-14 40 -4 23 -12 40 -20 40 -14 0 -25 22 -25 50 0 11 -9 24 -20 30 -12 6 -20
21 -20 36 0 13 -6 27 -14 30 -8 3 -18 20 -21 37 -7 34 -34 99 -65 159 -11 20
-20 43 -20 51 0 8 -7 20 -15 27 -8 7 -15 20 -15 30 0 9 -11 39 -25 66 -14 27
-25 54 -25 61 0 7 -9 17 -20 23 -11 6 -20 19 -20 29 0 10 -6 24 -14 30 -8 6
-26 51 -41 99 -35 109 -60 159 -100 197 -35 34 -71 103 -81 155 -4 19 -15 52
-25 72 -11 21 -19 47 -19 58 0 14 -5 20 -17 18 -13 -2 -19 5 -21 25 -2 15 -12
32 -23 37 -10 6 -19 17 -19 25 0 8 -9 32 -20 52 -11 21 -20 45 -20 54 0 9 -6
22 -14 28 -8 7 -18 27 -21 44 -4 18 -13 39 -20 47 -7 8 -16 30 -20 48 -4 18
-13 32 -21 32 -8 0 -14 6 -14 13 0 6 -6 24 -14 39 -8 14 -19 43 -26 65 -22 72
-55 143 -67 143 -6 0 -14 13 -18 30 -4 16 -11 32 -16 35 -12 8 -59 108 -59
127 0 8 -8 26 -19 39 -10 13 -21 34 -25 45 -4 12 -15 29 -26 39 -11 10 -20 23
-20 28 0 6 -6 18 -13 26 -14 17 -64 144 -69 176 -3 12 -10 19 -21 17 -13 -2
-17 5 -17 33 0 24 -5 35 -14 35 -10 0 -17 16 -22 48 -3 26 -15 55 -25 65 -11
10 -19 24 -19 32 0 7 -6 20 -12 27 -26 28 -58 78 -58 90 0 8 -9 31 -19 51 -11
21 -22 56 -26 78 -5 29 -11 39 -21 35 -9 -3 -16 4 -20 22 -4 15 -15 44 -25 64
-11 21 -19 45 -19 54 0 9 -9 27 -20 41 -11 14 -20 34 -20 43 0 10 -7 23 -15
30 -8 7 -17 28 -21 47 -4 19 -13 37 -20 40 -8 3 -19 23 -24 44 -6 21 -15 39
-20 39 -6 0 -10 13 -10 28 0 29 -34 69 -79 92 -19 10 -30 9 -61 -5 -21 -9 -43
-28 -51 -41 -7 -13 -16 -24 -20 -24 -4 0 -11 -37 -15 -82 -6 -60 -10 -75 -14
-53 -5 27 -7 26 -13 -19 -4 -27 -7 -76 -8 -110 -1 -65 -15 -174 -18 -141 l-2
20 -8 -20 c-5 -11 -11 -71 -14 -134 -4 -74 -11 -117 -19 -122 -8 -5 -15 -61
-22 -168 -7 -127 -12 -159 -21 -151 -10 8 -14 -7 -20 -70 -4 -44 -11 -78 -15
-75 -7 4 -11 -27 -26 -253 -4 -52 -10 -88 -14 -81 -9 14 -16 -29 -26 -161 -3
-46 -10 -93 -15 -103 -6 -10 -14 -91 -19 -180 -9 -161 -15 -201 -30 -192 -4 3
-11 -41 -15 -97 -5 -65 -12 -107 -21 -116 -8 -8 -14 -35 -15 -65 0 -50 -15
-156 -18 -129 0 7 -5 11 -10 8 -5 -3 -12 -58 -16 -121 -4 -63 -11 -113 -15
-110 -4 2 -10 -30 -14 -73 -15 -182 -19 -213 -26 -202 -8 13 -15 -29 -26 -147
-4 -40 -10 -71 -14 -68 -11 7 -20 -75 -21 -204 -1 -95 -13 -210 -18 -163 0 6
-5 12 -9 12 -5 0 -14 -48 -21 -107 -7 -60 -19 -162 -26 -228 -8 -66 -14 -147
-15 -180 0 -35 -6 -69 -14 -80 -8 -12 -17 -63 -21 -120 -5 -57 -11 -92 -15
-81 -6 18 -7 18 -13 2 -4 -10 -7 -48 -8 -84 0 -67 -14 -171 -19 -142 -3 24
-18 -31 -19 -73 -1 -21 -8 -70 -16 -110 -8 -40 -19 -118 -25 -175 -6 -65 -15
-109 -24 -118 -8 -8 -18 -34 -22 -59 -3 -25 -10 -45 -14 -45 -5 0 -14 -17 -21
-37 -33 -102 -103 -169 -185 -178 -27 -4 -52 -12 -56 -18 -5 -9 -189 -13 -740
-15 -704 -4 -904 1 -893 18 3 4 -28 10 -68 12 -61 3 -79 9 -119 36 -106 73
-129 120 -148 302 -5 52 -14 138 -20 190 -12 110 -21 773 -24 1825 -1 407 -3
990 -5 1295 -3 926 9 1301 45 1337 8 8 14 18 14 23 0 24 92 35 295 35 176 0
219 -3 265 -18 68 -22 294 -133 336 -164 17 -13 34 -23 38 -23 4 0 14 -6 21
-12 8 -7 26 -22 41 -33 54 -40 141 -132 189 -198 28 -38 57 -76 66 -85 9 -9
25 -37 36 -62 12 -25 33 -71 47 -102 14 -31 26 -63 26 -71 0 -8 7 -17 14 -20
8 -3 18 -23 22 -44 4 -21 13 -49 20 -63 12 -22 25 -93 56 -290 5 -36 8 -166 6
-290 -2 -191 -6 -230 -20 -252 -9 -14 -20 -43 -23 -64 -4 -21 -13 -48 -20 -59
-7 -11 -16 -35 -19 -53 -4 -17 -13 -35 -19 -39 -20 -13 -52 -65 -71 -115 -38
-101 -137 -227 -201 -254 -19 -8 -35 -19 -35 -24 0 -6 -5 -10 -12 -10 -7 0
-46 -26 -88 -58 -96 -74 -257 -156 -335 -170 -33 -7 -98 -15 -145 -18 -101 -8
-114 -15 -105 -62 5 -25 2 -39 -10 -53 -16 -17 -16 -18 8 -24 14 -4 103 -5
199 -3 156 3 184 7 283 35 61 16 162 43 225 58 109 26 237 79 335 139 22 13
67 39 100 56 62 34 75 43 159 113 66 55 105 94 201 201 44 48 85 93 90 100 37
40 94 145 168 306 13 30 34 76 46 101 12 25 21 52 21 60 0 8 5 20 11 26 6 6
17 53 25 104 8 52 18 117 23 144 6 28 10 156 10 285 1 218 -1 241 -23 320 -32
113 -52 164 -65 168 -6 2 -13 19 -17 39 -4 19 -12 37 -19 39 -7 3 -16 20 -19
39 -4 18 -13 38 -21 45 -8 7 -15 19 -15 26 0 7 -16 28 -37 46 -20 18 -41 39
-47 46 -6 7 -19 22 -28 33 -10 10 -18 22 -18 27 0 12 -53 56 -93 77 -21 11
-66 44 -100 73 -34 30 -91 68 -127 87 -36 18 -78 40 -95 48 -77 40 -114 55
-157 61 -26 4 -50 11 -53 16 -3 5 -27 12 -53 15 -26 3 -60 12 -77 20 -16 7
-70 16 -120 20 -49 3 -155 12 -235 19 -165 15 -590 19 -590 6 0 -5 -30 -7 -67
-6 -38 2 -68 5 -68 6 0 9 -59 6 -105 -6 -44 -12 -135 -14 -460 -13 -392 2
-463 5 -635 30 -81 11 -427 20 -484 11 -28 -4 -31 -8 -32 -41 -1 -32 -2 -34
-9 -11 -7 21 -8 19 -9 -17 l-1 -42 43 -5 c23 -3 94 -8 158 -11 140 -6 214 -27
321 -89 82 -49 118 -86 118 -121 0 -12 7 -42 16 -66 13 -34 18 -94 22 -256 2
-117 8 -211 12 -208 4 2 8 28 9 56 0 29 3 54 6 57 3 3 5 -717 5 -1600 0 -1154
-3 -1607 -11 -1610 -12 -4 -17 -324 -5 -335 9 -9 7 -25 -2 -19 -5 3 -12 -132
-15 -301 -3 -178 -9 -308 -15 -312 -5 -3 -15 -51 -21 -106 -6 -60 -18 -117
-31 -142 -11 -23 -20 -46 -21 -50 0 -4 -22 -27 -49 -50 -43 -36 -57 -42 -114
-48 -36 -4 -64 -11 -61 -15 9 -15 -95 -20 -410 -20 -320 1 -390 4 -379 21 3 5
-21 9 -53 9 -32 0 -63 4 -69 8 -22 15 -26 504 -27 3872 0 1884 -4 3427 -8
3430 -10 7 -13 2049 -4 2072 4 10 11 16 15 13 5 -3 12 1 17 8 26 44 -346 42
7000 41 3816 -1 7134 -2 7373 -1z m3300 -278 c85 -7 198 -23 250 -35 52 -11
135 -24 184 -27 127 -9 122 0 131 -229 7 -183 3 -352 -11 -387 -7 -20 -37 -22
-51 -4 -5 6 -15 36 -21 66 -27 122 -45 163 -103 241 -61 83 -104 116 -191 151
-105 41 -308 64 -439 50 -46 -5 -146 -17 -222 -25 -159 -18 -223 -42 -342
-132 -62 -47 -145 -139 -145 -162 0 -4 -17 -27 -38 -50 -27 -30 -46 -65 -63
-120 -23 -74 -24 -87 -24 -392 0 -300 5 -377 24 -366 5 3 14 -14 20 -39 6 -25
15 -45 20 -45 5 0 14 -20 20 -45 6 -25 15 -45 20 -45 5 0 14 -14 20 -30 5 -17
17 -38 26 -46 8 -8 15 -23 15 -32 0 -18 156 -192 172 -192 5 0 36 -20 67 -45
65 -49 85 -58 252 -109 171 -53 214 -59 394 -53 197 5 256 20 347 87 53 39 71
60 93 107 15 32 36 76 46 97 11 22 19 49 19 60 1 55 8 62 71 61 l59 0 0 -59
c0 -103 -30 -266 -63 -346 -29 -71 -91 -148 -120 -151 -7 -1 2 -5 18 -8 l30
-7 -40 -13 c-121 -36 -227 -45 -531 -43 -311 2 -453 14 -511 46 l-28 15 35 1
35 2 -30 10 c-16 6 -37 16 -45 24 -8 7 -28 16 -45 20 -42 9 -131 52 -181 86
-23 15 -47 28 -54 28 -14 0 -69 50 -199 181 -91 91 -117 127 -141 192 -5 16
-14 26 -19 23 -5 -3 -12 17 -16 45 -5 35 -11 49 -20 45 -13 -5 -24 21 -25 59
0 11 -9 38 -20 60 -11 22 -19 52 -20 66 0 14 -7 48 -15 75 -24 81 -30 231 -12
310 9 38 19 87 22 109 12 70 52 197 93 292 90 209 192 331 384 457 137 90 173
107 288 136 182 47 382 58 630 35z m5210 -35 c290 -7 557 -7 800 0 l365 9 30
-29 c29 -30 30 -33 33 -141 4 -123 -5 -198 -18 -164 -9 20 -9 20 -9 0 -1 -11
-8 -31 -17 -44 -13 -18 -18 -20 -25 -10 -7 11 -9 10 -9 -3 0 -40 -18 -14 -23
33 -8 64 -26 93 -75 118 -72 37 -151 49 -346 54 -173 4 -247 -1 -264 -18 -4
-3 -1 -10 6 -14 10 -6 12 -195 13 -872 0 -475 4 -884 8 -908 5 -24 13 -46 19
-50 5 -3 12 -16 16 -28 4 -13 13 -23 20 -23 8 0 19 -7 26 -14 6 -8 36 -20 66
-27 58 -13 61 -17 66 -89 l3 -45 -367 -2 c-328 -2 -368 -1 -368 13 0 9 9 18
21 21 15 4 17 8 8 13 -10 7 -10 14 1 39 14 34 21 37 49 20 29 -19 70 -3 77 29
3 15 14 54 24 87 18 56 19 121 24 958 5 838 4 899 -12 905 -24 10 -414 9 -487
-1 -58 -8 -62 -11 -130 -82 -57 -60 -78 -76 -113 -84 -23 -5 -44 -5 -47 -1 -3
5 -5 46 -6 92 0 61 5 102 22 153 38 116 52 128 144 119 22 -2 236 -8 475 -14z
m5870 6 c108 -8 801 -7 956 0 95 5 136 4 153 -6 l24 -12 -5 -172 c-3 -94 -9
-179 -13 -188 -5 -13 -19 -18 -50 -18 -47 0 -46 -1 -82 115 -28 92 -41 97
-281 102 -108 3 -213 6 -232 7 l-35 1 -3 -399 c-1 -220 1 -403 5 -407 5 -5 28
-4 52 2 23 5 131 14 240 19 108 5 221 15 251 23 30 7 66 11 80 7 25 -6 25 -8
23 -101 -5 -194 -14 -278 -33 -302 -14 -17 -21 -19 -31 -10 -6 6 -17 9 -24 7
-14 -6 -55 46 -55 69 0 8 -5 28 -11 45 -18 51 -64 62 -294 72 -110 5 -201 8
-202 7 0 -1 -4 -164 -8 -362 -9 -403 -2 -492 39 -519 58 -37 158 -48 352 -38
128 7 156 12 186 30 42 26 86 103 94 166 l7 47 56 -3 56 -3 3 -109 c3 -139
-13 -193 -76 -253 -30 -29 -39 -43 -28 -43 12 0 16 -7 14 -22 l-3 -23 -564 -2
c-369 -1 -571 1 -583 8 -15 8 -18 17 -13 41 8 34 56 82 66 66 4 -7 9 -6 14 2
6 9 9 9 16 -1 5 -9 10 -4 14 17 4 16 16 58 27 94 19 63 20 98 21 961 l2 895
-24 35 c-31 46 -73 69 -124 69 -40 0 -107 34 -107 54 0 16 31 45 43 41 7 -2
46 -7 87 -9z m-8882 -9 c6 -5 13 -29 13 -55 2 -45 2 -46 8 -12 5 24 9 -2 13
-82 3 -65 3 -129 1 -142 -5 -24 -53 -56 -86 -56 -8 0 -32 25 -53 57 -22 31
-50 64 -64 74 -51 38 -136 50 -326 47 l-179 -3 -3 -399 -2 -398 42 6 c24 3
140 10 258 15 118 6 244 15 280 20 36 6 68 7 73 2 4 -4 3 -47 -2 -95 -6 -48
-8 -100 -4 -116 11 -55 -6 -136 -36 -170 -26 -30 -28 -30 -43 -13 -8 10 -23
41 -32 69 -33 100 -68 113 -318 114 -102 0 -193 -3 -202 -6 -14 -5 -16 -52
-16 -423 l0 -416 23 -22 c36 -34 124 -46 308 -41 173 4 222 16 274 64 27 25
75 100 75 117 0 26 31 57 53 53 30 -4 39 -56 35 -191 -5 -115 -16 -152 -58
-190 -19 -17 -19 -20 -4 -25 14 -5 12 -9 -12 -26 -28 -18 -51 -19 -554 -19
-523 0 -525 0 -565 22 l-40 22 60 2 60 2 -58 7 c-69 9 -80 17 -49 37 12 9 22
22 22 30 0 12 3 13 14 4 11 -10 16 -8 21 8 3 12 10 21 15 21 21 0 52 78 61
154 10 91 11 1593 1 1728 -8 104 -15 112 -117 128 -119 19 -140 36 -87 75 26
19 45 20 362 23 184 1 339 3 343 5 22 6 484 1 495 -6z m972 1 c8 1 99 4 201 8
182 7 278 0 404 -27 54 -12 165 -66 178 -86 4 -7 13 -13 18 -13 12 0 53 -36
110 -95 65 -68 70 -76 81 -108 6 -18 16 -35 22 -39 7 -5 12 -67 14 -170 3
-163 -2 -233 -17 -223 -5 2 -14 -17 -20 -43 -23 -92 -93 -203 -229 -366 l-50
-60 36 -50 c19 -28 96 -125 171 -215 74 -90 147 -180 161 -201 56 -83 108
-147 176 -214 73 -74 201 -159 254 -171 16 -4 33 -11 36 -16 5 -9 49 -31 66
-33 3 -1 9 -4 12 -7 3 -3 24 -4 46 -3 37 2 40 0 41 -25 1 -14 1 -32 0 -40 -2
-7 2 -10 8 -6 6 3 11 24 11 46 0 21 5 39 10 39 6 0 10 -22 10 -50 0 -49 0 -50
-32 -52 l-33 -1 33 -4 c35 -5 40 -14 17 -33 -10 -9 -70 -11 -227 -8 -189 4
-219 7 -263 26 l-50 21 45 1 c44 2 45 2 15 12 -16 6 -41 19 -54 29 -13 11 -30
19 -38 19 -7 0 -33 18 -57 40 -24 22 -47 40 -51 40 -12 0 -55 42 -55 53 0 6
-40 54 -90 108 -49 53 -90 101 -90 105 0 4 -19 33 -43 63 -23 31 -60 85 -82
121 -21 36 -41 67 -45 70 -3 3 -14 19 -24 35 -42 65 -123 154 -151 165 -16 7
-39 16 -50 20 -28 12 -100 20 -295 33 -25 2 -25 2 -30 -108 l-6 -110 -5 95
c-3 52 -5 -42 -5 -210 0 -168 2 -262 5 -210 6 95 6 95 14 -70 7 -160 8 -165
34 -192 28 -29 69 -36 103 -18 11 6 40 12 65 14 42 4 45 3 51 -21 4 -15 2 -39
-4 -55 -8 -23 -8 -28 5 -28 10 0 6 -8 -13 -22 -28 -23 -35 -23 -337 -26 -304
-3 -309 -3 -355 20 -33 16 -42 24 -29 26 15 3 16 6 6 18 -9 12 -9 21 2 42 31
60 91 97 112 68 20 -27 38 -3 47 65 10 67 14 1809 4 1844 -3 12 -13 25 -23 30
-35 19 -87 43 -131 61 -25 10 -49 21 -54 25 -13 11 12 67 32 73 10 3 96 2 192
-1 96 -3 182 -6 190 -5z m4072 2 c127 -9 168 -15 210 -34 62 -27 57 -32 -60
-62 -123 -31 -112 63 -112 -1004 0 -891 0 -911 20 -947 11 -21 20 -42 20 -48
0 -5 12 -18 26 -28 21 -16 31 -17 78 -7 73 15 83 9 88 -53 8 -94 34 -88 -355
-85 l-342 3 -3 53 c-2 37 2 62 13 78 15 24 45 33 45 14 0 -5 9 -10 20 -10 11
0 20 -7 20 -15 0 -21 13 -19 27 4 34 54 38 173 38 1071 0 650 -3 892 -12 911
-9 21 -21 28 -56 33 -24 4 -66 20 -91 37 l-47 29 21 28 c21 26 25 27 148 32
70 3 132 7 137 8 6 1 81 -3 167 -8z m1917 1 c84 -6 106 -11 117 -26 10 -14 14
-55 14 -149 0 -178 -5 -203 -44 -223 -30 -15 -31 -15 -51 11 -11 15 -31 60
-45 99 -29 80 -41 90 -130 107 -68 13 -411 13 -444 0 l-26 -10 0 -384 0 -384
33 -5 c32 -4 372 8 477 17 30 3 74 14 97 26 51 24 59 25 67 4 17 -45 -9 -432
-31 -454 -9 -9 -91 93 -120 150 -24 45 -34 56 -63 62 -37 8 -440 29 -449 23
-3 -2 -6 -162 -5 -357 2 -532 2 -534 20 -552 8 -9 18 -31 21 -50 7 -44 43 -61
117 -53 29 3 58 2 64 -2 7 -4 11 -25 10 -47 -2 -63 -13 -65 -328 -75 -286 -8
-329 -5 -372 31 l-23 19 25 1 c24 1 24 1 6 15 -11 9 -16 20 -12 31 5 13 9 14
20 5 9 -8 16 -8 20 -2 4 6 13 8 21 5 8 -4 18 1 21 10 3 9 10 14 14 11 4 -2 20
23 36 58 l29 62 0 895 c0 863 -1 897 -19 925 -27 43 -79 95 -93 95 -7 0 -13 4
-13 8 0 5 -18 16 -40 25 -48 19 -61 44 -34 65 16 12 63 13 299 9 154 -3 316
-2 360 2 109 11 328 12 454 2z m1021 -3 c168 2 176 1 214 -21 l38 -24 -33 -32
c-19 -17 -45 -34 -58 -38 -25 -6 -71 -48 -71 -64 0 -5 -7 -9 -15 -9 -19 0 -17
82 -16 -845 1 -744 6 -953 21 -910 4 13 9 -5 14 -51 l7 -71 71 -37 c38 -20 79
-36 90 -36 37 0 78 -29 78 -55 0 -14 -5 -25 -12 -25 -6 0 -3 -6 7 -14 41 -30
-12 -36 -329 -36 -297 0 -307 1 -348 22 -33 17 -38 24 -24 26 14 3 15 6 6 12
-16 10 -7 37 25 75 21 25 26 28 35 15 7 -11 10 -11 10 -2 0 7 4 11 9 8 10 -7
21 27 21 64 0 14 7 52 15 84 13 49 15 178 15 875 0 721 -2 824 -16 871 -22 73
-46 102 -102 121 -55 18 -60 32 -31 78 l20 33 92 -8 c51 -5 171 -8 267 -6z
m3765 -8 c65 -11 137 -20 162 -20 108 0 344 -117 523 -258 67 -53 105 -97 145
-165 20 -34 51 -87 70 -117 18 -30 36 -73 40 -95 3 -22 10 -42 16 -45 5 -4 16
-49 23 -101 8 -52 15 -85 16 -74 2 17 3 16 10 -5 10 -31 10 -320 0 -415 l-7
-70 -3 55 c-2 48 -3 51 -10 25 -4 -16 -8 -54 -9 -83 -1 -74 -58 -233 -111
-312 -10 -14 -38 -57 -64 -96 -57 -85 -206 -235 -296 -297 -75 -51 -153 -92
-225 -118 -38 -13 -44 -18 -25 -19 24 -2 24 -2 -5 -12 -16 -6 -35 -15 -41 -19
-28 -22 -325 -30 -821 -23 l-513 7 0 60 c0 49 4 65 22 84 25 27 50 30 68 7 12
-13 15 -11 26 16 30 71 35 244 32 1080 l-3 835 -25 33 c-13 18 -34 35 -47 38
-12 3 -27 12 -34 20 -6 8 -30 14 -53 14 -53 0 -73 12 -51 30 8 7 15 21 15 30
0 10 8 20 17 22 9 2 247 4 529 6 478 3 519 2 629 -18z m355 -3400 c30 -5 86
-12 123 -16 69 -7 97 -25 97 -64 0 -8 7 -28 16 -45 22 -43 22 -255 -1 -308
-15 -36 -56 -64 -75 -52 -14 8 -47 79 -55 115 -11 54 -52 118 -93 144 -20 13
-68 34 -106 46 -78 26 -166 24 -245 -5 -54 -19 -140 -83 -178 -133 -27 -35
-28 -42 -28 -142 1 -89 4 -111 23 -145 12 -22 22 -45 22 -51 0 -7 6 -14 14
-17 8 -3 16 -16 18 -29 2 -15 9 -22 21 -20 10 2 17 -3 17 -13 0 -8 3 -15 8
-15 4 0 28 -19 53 -42 26 -24 60 -55 75 -69 16 -14 40 -40 54 -57 14 -18 28
-32 33 -32 4 0 32 -18 62 -40 30 -22 57 -40 59 -40 10 0 96 -86 96 -96 0 -5
18 -25 40 -44 22 -19 40 -39 40 -43 0 -5 13 -22 30 -38 40 -40 100 -132 100
-153 0 -9 6 -19 14 -22 8 -3 18 -24 22 -47 3 -23 13 -52 22 -65 11 -18 15 -51
14 -143 0 -66 -5 -126 -10 -132 -5 -7 -15 -39 -22 -71 -8 -40 -24 -75 -49
-107 -20 -26 -52 -70 -71 -98 -29 -42 -87 -93 -196 -173 -19 -14 -212 -37
-370 -44 -134 -6 -158 -5 -220 13 -38 12 -89 26 -113 33 -100 27 -126 95 -119
304 6 152 19 199 58 211 28 9 40 -2 40 -35 0 -41 20 -49 21 -8 1 47 12 17 39
-102 29 -128 50 -158 145 -204 71 -34 81 -36 178 -37 113 -1 225 24 276 61 81
57 130 153 138 266 6 85 -2 158 -16 149 -5 -2 -11 13 -15 34 -3 22 -10 41 -14
43 -4 1 -21 25 -36 52 -28 48 -71 96 -86 96 -4 0 -18 16 -31 35 -13 20 -35 38
-49 42 -29 7 -30 8 -123 95 -40 38 -77 68 -82 68 -15 0 -101 86 -185 185 -41
48 -82 96 -92 106 -9 9 -19 28 -23 41 -4 12 -11 28 -16 34 -5 6 -20 44 -34 85
-32 94 -34 228 -6 335 18 65 76 167 122 215 9 9 18 21 20 26 8 20 104 85 168
114 36 17 93 37 126 44 68 15 273 18 355 5z m-7842 -13 c6 -7 15 -32 21 -56 5
-24 14 -47 19 -50 5 -3 12 -24 16 -46 4 -21 14 -51 21 -65 7 -14 16 -41 20
-60 4 -19 13 -42 20 -50 7 -8 16 -31 20 -50 4 -19 13 -42 21 -51 8 -8 18 -37
23 -62 4 -26 13 -52 19 -59 6 -7 13 -30 17 -50 4 -21 13 -42 20 -48 8 -6 17
-24 20 -40 3 -16 12 -31 20 -33 7 -3 16 -21 20 -39 4 -18 13 -43 21 -55 8 -13
18 -50 23 -84 5 -40 14 -65 25 -71 9 -5 16 -19 16 -31 0 -13 6 -32 14 -43 8
-11 17 -38 21 -60 4 -21 13 -48 20 -59 7 -11 16 -36 20 -55 4 -19 13 -44 20
-56 7 -11 18 -36 24 -55 22 -74 47 -135 64 -159 9 -13 17 -33 17 -43 0 -11 6
-33 14 -50 8 -18 20 -51 26 -74 6 -24 15 -43 20 -43 5 0 12 -17 16 -37 4 -21
13 -47 20 -58 6 -11 15 -35 19 -54 8 -39 47 -97 147 -224 33 -42 65 -55 143
-59 l70 -4 0 -64 0 -65 -140 0 c-77 0 -205 2 -284 5 -135 5 -145 6 -146 25 -8
79 -30 188 -40 198 -6 7 -15 37 -19 67 -10 81 -64 226 -67 179 0 -7 -7 9 -14
36 -19 72 -44 144 -64 190 -10 22 -21 54 -25 70 -12 50 -29 66 -62 56 -16 -4
-153 -8 -304 -9 l-275 -1 -22 -26 c-13 -14 -23 -34 -23 -45 0 -10 -6 -31 -14
-47 -8 -15 -27 -71 -42 -123 -15 -52 -34 -101 -41 -108 -7 -7 -13 -21 -13 -30
0 -10 -10 -35 -22 -57 -19 -33 -23 -55 -23 -132 0 -98 9 -119 52 -127 30 -6
62 -28 66 -46 15 -75 -31 -85 -360 -76 -241 6 -318 14 -280 29 10 4 17 17 17
32 0 15 6 25 15 25 8 0 19 9 25 19 5 11 24 23 42 26 44 10 109 56 146 102 34
44 77 140 86 198 4 22 13 54 21 70 7 17 23 56 36 88 12 32 30 68 39 80 10 13
23 43 30 67 21 82 42 145 61 186 11 22 19 46 19 52 0 7 4 20 10 30 5 9 21 49
35 87 14 39 34 93 44 120 11 28 33 95 50 150 32 104 52 162 96 280 15 39 32
88 40 110 7 22 27 74 44 115 17 41 31 80 31 86 0 19 47 157 64 189 9 17 16 35
16 40 0 22 51 84 72 88 43 8 56 7 66 -6z m-6928 -16 c194 -16 305 -68 465
-216 38 -35 85 -130 85 -170 0 -27 1 -27 13 -10 13 17 14 17 20 -6 27 -98 13
-394 -18 -383 -9 4 -15 -8 -20 -35 -4 -23 -11 -43 -16 -46 -4 -3 -17 -25 -27
-48 -42 -92 -216 -251 -356 -325 -47 -25 -60 -27 -171 -27 -124 0 -195 15
-195 40 0 7 -2 19 -5 27 -3 7 8 28 24 46 29 31 33 32 108 32 124 0 141 9 259
123 121 118 123 124 131 321 5 127 -6 192 -39 235 -10 13 -18 29 -18 36 0 7
-16 37 -36 67 -34 51 -46 60 -158 117 -99 50 -133 62 -188 67 -99 10 -135 0
-155 -42 -9 -18 -20 -34 -25 -34 -4 0 -8 -395 -8 -879 l0 -879 24 -55 c26 -58
40 -67 129 -83 48 -8 70 -38 59 -79 -11 -38 -30 -42 -189 -44 -75 -1 -123 -5
-123 -11 0 -5 -15 -10 -32 -10 -25 0 -29 3 -18 10 18 12 -6 14 -135 11 -108
-3 -140 7 -148 46 -4 23 2 34 36 67 56 53 65 73 77 169 12 100 17 1607 5 1725
-10 103 -24 118 -126 128 -48 5 -69 11 -69 20 0 8 -6 14 -14 14 -21 0 -30 20
-17 33 6 6 11 19 11 29 0 10 9 22 19 26 30 11 699 6 841 -7z m2366 12 c10 -3
14 -21 14 -59 0 -59 -15 -76 -78 -88 -18 -3 -42 -15 -55 -26 l-22 -21 0 -937
0 -937 25 -26 c31 -31 99 -59 145 -59 24 0 39 -7 49 -22 16 -23 22 -77 9 -79
-70 -6 -603 -3 -643 4 -30 5 -61 10 -68 11 -34 6 -40 66 -6 66 8 0 14 4 14 9
0 5 12 14 28 20 47 19 96 60 110 94 12 27 15 172 16 902 1 636 -2 879 -11 905
-6 19 -14 47 -17 62 -5 22 -15 30 -47 38 -22 6 -49 20 -60 31 -10 10 -25 19
-33 19 -8 0 -18 5 -21 10 -12 19 6 67 28 78 23 11 595 16 623 5z m7196 -7
l777 0 5 -41 c8 -66 13 -348 7 -380 -5 -23 -11 -30 -31 -30 -22 0 -26 6 -36
54 -9 40 -21 60 -46 82 -18 15 -37 28 -42 29 -5 0 -17 7 -26 15 -46 42 -431
75 -518 44 -66 -23 -62 31 -62 -921 0 -709 2 -867 14 -883 7 -11 16 -31 19
-45 3 -14 15 -35 26 -46 17 -19 24 -20 71 -10 51 10 53 10 75 -18 13 -16 25
-42 27 -57 4 -23 0 -29 -21 -34 -34 -9 -587 -8 -656 0 -44 6 -53 10 -48 24 14
44 27 60 59 65 35 7 84 56 84 85 0 9 4 21 10 27 26 26 31 194 28 994 l-3 824
-220 1 c-299 0 -386 -16 -448 -81 -12 -13 -29 -24 -37 -24 -24 -1 -60 -36 -60
-59 0 -27 -27 -38 -45 -20 -16 18 -4 117 25 202 11 31 20 66 20 78 0 20 42
117 57 133 5 5 55 5 113 0 58 -4 455 -8 882 -8z m3043 -12 l28 -26 -6 -161
c-3 -88 -10 -163 -15 -166 -5 -3 -12 -19 -16 -34 -6 -24 -9 -27 -21 -17 -8 7
-21 10 -29 7 -29 -11 -65 31 -72 85 -5 35 -15 60 -33 79 l-26 28 -220 1 c-121
1 -225 1 -231 1 -17 -1 -29 -732 -12 -742 20 -13 392 -10 466 3 37 6 91 12
121 12 l55 1 0 -205 1 -205 -23 -3 c-19 -3 -43 16 -114 90 l-90 93 -200 3
c-116 2 -204 0 -210 -6 -7 -7 -12 -463 -9 -809 1 -39 6 -58 21 -73 19 -19 33
-20 235 -20 243 0 267 6 333 78 35 39 92 150 92 181 0 19 31 34 53 25 7 -2 19
-42 28 -88 14 -73 15 -94 3 -159 -23 -132 -56 -187 -129 -212 -19 -6 -600 -7
-905 -2 -155 3 -240 19 -240 45 0 15 47 59 118 113 62 46 61 36 77 764 2 121
1 418 -4 660 -8 422 -9 442 -29 482 -26 49 -56 73 -93 73 -15 0 -29 7 -33 15
-3 8 -9 15 -13 14 -54 -9 -78 20 -42 50 50 41 89 44 532 39 232 -2 458 -1 502
2 44 4 89 7 101 8 12 1 34 -10 49 -24z m-8270 8 c46 -6 50 -10 55 -37 11 -61
3 -72 -61 -84 -34 -6 -68 -19 -81 -31 l-23 -21 -3 -837 c-3 -865 -1 -982 23
-982 8 0 17 -15 20 -34 7 -33 7 -33 67 -35 34 -1 64 -4 68 -6 4 -2 94 -5 200
-6 l193 -2 72 74 c80 82 120 149 110 186 -5 21 -2 23 27 23 62 0 63 -4 63
-170 0 -95 -4 -153 -11 -158 -5 -4 -16 -21 -22 -37 -28 -69 -50 -83 -147 -94
-49 -6 -153 -8 -230 -6 -77 3 -300 7 -495 10 -195 2 -364 7 -375 10 -29 9 -50
44 -36 58 6 6 11 23 11 38 0 28 15 39 54 39 39 0 63 26 69 77 4 26 9 59 12 73
9 39 5 1648 -4 1673 -5 12 -12 45 -16 72 -11 76 -16 81 -84 88 -44 4 -65 11
-82 28 -25 25 -33 78 -14 91 12 9 571 9 640 0z m-4648 -1229 c-2 -16 -4 -5 -4
22 0 28 2 40 4 28 2 -13 2 -35 0 -50z m-4331 -463 c26 0 62 -42 69 -78 6 -35
34 -133 56 -197 6 -16 15 -50 21 -75 6 -25 16 -52 23 -60 7 -8 15 -31 19 -51
4 -21 13 -43 21 -49 9 -7 18 -30 21 -51 4 -21 12 -40 19 -43 7 -2 16 -24 20
-47 4 -24 13 -49 20 -56 7 -7 16 -32 20 -55 4 -23 13 -52 21 -63 7 -11 16 -38
20 -60 4 -22 13 -45 19 -52 7 -7 16 -29 20 -50 4 -21 13 -45 20 -53 7 -8 16
-37 20 -65 3 -27 13 -59 20 -71 7 -12 17 -39 21 -60 4 -21 13 -48 20 -59 7
-11 16 -39 20 -62 3 -23 12 -44 19 -47 7 -2 16 -21 19 -40 4 -20 11 -34 16
-31 5 3 15 -14 22 -37 6 -24 16 -46 21 -49 15 -10 56 -228 57 -296 l0 -61
-662 1 c-769 2 -725 -3 -720 87 2 30 8 57 13 61 10 6 18 34 54 179 9 36 22 76
30 90 7 14 16 41 20 60 4 19 11 40 15 45 4 6 17 42 29 80 28 87 66 188 91 240
48 103 100 217 100 221 0 3 8 24 19 47 10 23 22 58 26 77 4 19 14 44 21 55 8
11 14 25 14 33 0 7 9 32 19 55 11 24 23 56 27 72 4 17 10 35 14 40 10 13 53
125 79 205 11 36 32 100 46 143 14 42 25 84 25 93 0 9 8 29 18 46 17 29 17 29
31 9 7 -12 20 -21 27 -21z m-3430 -438 c6 -4 15 -38 19 -77 4 -38 13 -97 20
-130 8 -33 17 -138 21 -233 5 -125 11 -175 20 -179 8 -3 15 -38 19 -101 3 -53
13 -114 21 -134 7 -21 18 -100 24 -175 5 -76 14 -176 20 -223 5 -47 14 -141
21 -210 6 -69 14 -129 19 -135 4 -5 11 -40 15 -77 4 -43 11 -67 18 -65 8 1 15
-26 20 -78 4 -44 14 -127 22 -185 8 -58 17 -154 21 -215 3 -60 12 -138 19
-171 8 -34 17 -103 21 -155 4 -52 13 -111 20 -132 7 -21 16 -79 20 -130 4 -54
12 -98 20 -108 7 -8 16 -49 19 -90 4 -40 13 -101 20 -134 8 -33 15 -112 17
-176 3 -99 1 -118 -14 -133 -10 -10 -18 -23 -18 -30 0 -23 -55 -65 -97 -74
-23 -5 -44 -8 -47 -5 -8 8 -47 -8 -41 -17 3 -4 -5 -10 -18 -14 -30 -8 -1480
-8 -1584 1 -45 3 -80 10 -77 14 3 5 -10 9 -28 9 -25 0 -29 -3 -18 -10 11 -7 5
-10 -23 -10 -23 0 -36 4 -32 10 4 6 -22 10 -72 10 -43 0 -88 3 -100 6 -52 14
-41 100 27 206 20 31 47 78 61 104 13 27 30 55 37 62 6 7 12 18 12 24 0 5 35
83 78 172 44 88 84 172 90 186 7 14 16 32 20 40 21 37 92 190 112 240 27 70
73 163 83 171 5 3 14 17 21 30 7 13 17 33 24 44 15 27 45 98 72 170 42 109
135 307 185 390 25 41 68 127 102 205 11 25 28 61 37 82 9 20 16 39 16 44 0 4
36 82 81 173 80 165 102 210 154 326 74 164 87 191 95 205 12 18 129 257 158
320 68 149 109 256 118 303 3 21 16 44 27 52 22 16 84 20 103 7z m-3707 -125
c28 -14 75 -89 86 -135 3 -17 12 -36 20 -42 7 -6 16 -27 19 -48 8 -44 45 -141
62 -162 7 -8 16 -28 20 -45 3 -16 12 -37 20 -45 7 -8 16 -28 20 -45 4 -16 15
-41 26 -54 10 -13 18 -32 18 -41 0 -10 7 -23 15 -30 8 -7 17 -27 21 -46 3 -19
10 -34 15 -34 4 0 14 -18 20 -40 7 -22 16 -40 20 -40 4 0 13 -17 20 -37 6 -21
18 -41 25 -46 7 -4 16 -22 19 -40 4 -17 13 -39 20 -47 7 -8 16 -29 20 -47 3
-17 12 -37 20 -43 8 -6 17 -24 20 -40 3 -16 13 -31 21 -34 8 -3 14 -14 14 -24
0 -11 9 -31 20 -45 11 -14 20 -30 20 -37 0 -6 9 -30 19 -53 11 -24 23 -55 26
-69 4 -15 13 -32 21 -39 8 -6 14 -19 14 -29 0 -9 9 -29 20 -43 11 -14 20 -29
20 -34 0 -4 9 -24 19 -44 11 -20 23 -53 26 -73 4 -20 11 -36 15 -36 5 0 14
-17 21 -37 6 -21 18 -42 25 -46 8 -4 14 -13 14 -20 0 -7 12 -34 25 -62 14 -27
25 -60 25 -72 0 -13 4 -23 10 -23 5 0 15 -18 21 -40 7 -21 15 -37 19 -35 4 3
14 -10 21 -28 7 -17 16 -34 19 -37 3 -3 39 -71 79 -152 40 -80 79 -152 87
-158 8 -7 14 -16 14 -21 0 -12 18 -50 45 -94 32 -54 75 -145 75 -160 0 -7 8
-23 18 -36 11 -13 22 -37 26 -54 4 -16 11 -32 15 -35 9 -7 111 -215 111 -228
0 -5 6 -12 14 -15 7 -3 17 -18 20 -34 4 -15 13 -35 21 -43 7 -8 16 -26 20 -40
4 -14 16 -36 26 -49 11 -13 19 -30 19 -37 0 -8 4 -14 9 -14 5 0 16 -16 25 -35
9 -19 20 -35 24 -35 5 0 14 -16 21 -35 15 -43 6 -62 -46 -97 l-38 -26 -825 -1
c-454 -1 -837 2 -852 6 -15 5 -28 13 -28 18 0 6 -36 11 -82 13 -110 3 -176 35
-215 101 -24 42 -27 57 -31 176 -3 91 2 184 17 310 11 99 23 221 27 270 4 50
11 100 15 113 5 12 16 91 25 174 8 84 17 155 19 159 3 3 11 78 20 165 33 341
119 1002 135 1042 6 12 14 89 20 170 6 81 19 199 30 262 35 213 39 245 46 360
4 63 11 121 17 128 12 15 65 15 96 -1z m18941 -1176 c47 -5 121 -18 165 -29
44 -11 119 -27 167 -36 172 -32 168 -25 168 -315 0 -119 -3 -233 -6 -253 -7
-38 -7 -38 -54 -38 l-48 0 -17 68 c-53 212 -93 287 -176 329 -42 21 -63 28
-219 70 -91 25 -366 30 -470 9 -41 -8 -108 -18 -148 -21 -109 -9 -190 -55
-311 -176 -80 -80 -104 -111 -140 -185 -30 -60 -47 -108 -51 -149 -4 -33 -8
-49 -9 -35 l-2 25 -10 -23 c-12 -31 -14 -109 -11 -391 2 -200 4 -232 17 -228
10 5 16 -4 21 -31 7 -41 39 -115 66 -151 10 -13 18 -30 18 -38 0 -16 39 -74
58 -86 6 -4 12 -12 12 -17 0 -32 197 -240 228 -240 6 0 12 -4 12 -9 0 -17 190
-101 285 -126 106 -27 203 -33 400 -21 260 14 288 27 376 171 13 22 30 49 36
60 7 11 19 36 28 55 32 72 43 85 72 85 49 0 56 -32 38 -187 -16 -151 -35 -222
-68 -258 -27 -30 -92 -80 -104 -80 -5 0 -25 -9 -45 -20 -22 -12 -75 -24 -129
-30 -184 -21 -668 -6 -724 22 -17 8 -50 18 -75 22 -25 4 -54 13 -65 20 -11 6
-39 18 -61 24 -23 7 -47 19 -54 27 -7 8 -25 15 -41 15 -19 0 -30 6 -34 20 -4
13 -15 20 -31 20 -14 0 -42 16 -67 38 -71 63 -85 73 -99 76 -22 3 -37 16 -33
29 3 7 -11 23 -30 37 -19 14 -35 32 -35 40 -1 17 -92 110 -109 110 -6 0 -11 8
-11 18 0 9 -9 31 -19 48 -10 17 -22 45 -26 62 -3 18 -12 38 -18 45 -19 19 -55
117 -67 182 -7 33 -19 80 -28 105 -13 36 -16 80 -15 230 2 226 14 274 128 501
141 284 275 422 486 499 44 16 91 37 106 47 39 26 90 42 202 64 80 15 129 17
291 13 107 -2 233 -9 280 -13z m-7860 -22 c85 -11 1084 -11 1220 1 58 5 133
12 167 16 57 6 63 5 87 -19 18 -18 26 -38 27 -64 l2 -38 6 35 c4 22 9 -24 13
-119 6 -147 6 -156 -15 -193 -12 -21 -27 -38 -34 -38 -6 0 -19 20 -28 45 -10
24 -26 52 -36 61 -11 9 -19 23 -19 30 0 7 -14 15 -30 19 -17 4 -28 10 -25 15
9 14 -38 20 -245 30 -113 5 -233 12 -267 16 -50 5 -63 4 -63 -7 -1 -8 -1 -151
-2 -319 -1 -221 -3 -271 -8 -180 -3 69 -7 -199 -7 -595 -1 -409 2 -711 7 -700
7 16 9 12 9 -20 2 -50 9 -62 46 -71 16 -4 49 -19 72 -33 37 -23 43 -30 43 -61
0 -19 5 -42 10 -50 9 -13 11 -13 20 0 5 8 10 22 10 30 1 12 4 11 15 -3 20 -27
10 -41 -38 -55 -34 -10 -101 -11 -322 -2 -154 6 -290 11 -302 11 -12 -1 -25 4
-29 10 -10 16 17 99 32 99 8 0 14 4 14 9 0 5 19 27 41 49 33 31 44 50 51 88 4
27 11 437 14 910 5 800 4 862 -12 878 -15 15 -35 16 -178 12 -88 -3 -206 -9
-261 -12 l-99 -6 -61 -58 c-41 -40 -73 -62 -102 -69 -24 -7 -43 -16 -43 -21 0
-6 -9 -10 -19 -10 -18 0 -19 6 -14 98 3 67 11 109 24 135 10 21 19 43 19 50 0
14 56 98 73 110 13 8 126 2 237 -14z m4944 -18 c7 -14 19 -44 25 -66 7 -22 16
-49 21 -60 5 -11 14 -37 20 -57 6 -21 15 -38 20 -38 5 0 11 -15 15 -32 9 -42
55 -161 65 -168 5 -3 12 -21 18 -40 5 -19 14 -34 19 -33 6 1 16 -24 22 -57 7
-33 16 -62 20 -65 5 -2 14 -34 21 -70 7 -36 15 -65 19 -65 4 0 12 -20 19 -45
7 -25 16 -45 21 -45 5 0 12 -15 16 -32 11 -56 16 -68 25 -63 5 3 12 -11 16
-32 3 -21 13 -48 20 -60 8 -12 19 -45 25 -73 6 -27 15 -50 19 -50 5 0 12 -17
15 -37 10 -58 15 -70 24 -55 4 7 12 -13 19 -48 7 -33 17 -60 21 -60 5 0 12
-17 16 -37 4 -21 15 -51 25 -68 9 -16 21 -47 24 -67 4 -21 10 -38 15 -38 4 0
13 -25 20 -55 7 -30 16 -55 21 -55 4 0 13 -22 20 -50 7 -27 15 -50 19 -50 4 0
12 -20 19 -46 7 -25 16 -43 21 -39 5 3 13 -9 16 -27 23 -103 108 -187 206
-203 50 -8 69 -25 75 -68 6 -50 -9 -74 -54 -87 -65 -18 -289 -10 -277 10 3 4
-37 11 -88 14 -132 10 -127 7 -128 79 0 54 -2 59 -11 37 -11 -25 -11 -25 -18
10 -4 23 -2 39 7 46 17 14 17 45 -1 86 -8 18 -19 52 -25 76 -7 23 -16 42 -21
42 -6 0 -10 6 -10 14 0 26 -69 223 -105 301 -8 17 -25 56 -39 87 l-24 56 -298
-1 -298 -2 -38 -75 c-21 -40 -54 -124 -74 -185 -20 -60 -40 -115 -45 -120 -4
-6 -11 -30 -15 -54 -4 -25 -10 -38 -14 -30 -9 14 -15 -1 -30 -90 -10 -58 -9
-103 6 -153 4 -14 47 -34 66 -30 13 3 29 -38 26 -66 l-3 -27 -105 -3 c-57 -1
-107 -7 -110 -12 -5 -8 -86 -13 -160 -10 -27 1 -31 3 -15 9 24 10 -50 21 -137
21 -54 0 -59 2 -69 27 -16 44 -8 55 56 72 33 9 84 30 113 46 62 34 76 57 123
201 18 55 38 108 45 119 6 11 24 58 39 105 15 47 38 110 51 141 61 144 95 235
118 316 24 87 52 168 139 398 25 66 67 179 92 250 26 72 66 171 89 220 45 93
70 173 86 271 11 66 27 81 81 76 31 -3 43 -10 53 -31z m4834 33 c22 -6 32 -34
11 -34 -11 0 -41 -26 -128 -109 l-56 -55 -5 -230 c-3 -127 -8 -217 -10 -201
-2 17 -7 -35 -10 -115 -3 -80 -3 -153 1 -163 5 -18 33 -19 606 -20 l600 -2 7
80 c3 44 6 171 6 282 0 242 -17 382 -46 376 -5 -1 -16 4 -24 11 -8 7 -35 20
-60 30 -105 42 -120 50 -135 66 -21 24 -1 45 55 58 55 12 645 13 677 1 13 -5
26 -15 29 -23 7 -18 -44 -76 -67 -76 -10 0 -21 -5 -24 -10 -4 -6 -12 -9 -18
-8 -16 4 -67 -42 -67 -60 0 -8 -6 -12 -14 -9 -9 4 -16 -3 -20 -16 -7 -31 -8
-1739 0 -1798 4 -27 12 -49 18 -49 6 0 22 -11 34 -25 26 -28 106 -55 161 -55
58 0 66 -10 55 -72 l-9 -53 -100 -6 c-55 -3 -149 -2 -210 2 -60 4 -157 5 -215
3 -125 -6 -152 3 -160 56 -5 32 -1 39 49 86 51 49 55 56 72 135 16 73 19 133
19 469 0 212 -3 395 -6 407 -5 19 -10 21 -25 12 -18 -9 -372 -12 -559 -4 -154
7 -354 6 -475 -1 -116 -6 -126 -8 -130 -28 -4 -16 -12 -414 -15 -741 0 -22 3
-73 8 -113 7 -57 14 -78 33 -95 39 -37 87 -57 133 -57 66 0 76 -7 76 -50 0
-37 -18 -56 -46 -49 -5 2 -35 -6 -68 -15 -52 -16 -70 -17 -170 -6 -194 20
-259 23 -252 11 8 -13 -31 -14 -111 -5 -48 6 -52 8 -51 34 1 15 -2 32 -6 38
-7 12 57 54 87 56 15 1 24 11 32 36 5 19 14 41 18 48 5 7 9 424 9 926 l1 914
-22 31 c-17 24 -30 31 -56 31 -54 0 -85 17 -100 55 -20 47 -5 80 38 85 55 6
207 4 342 -4 106 -6 137 -5 170 7 43 17 86 20 123 11z m-6451 -40 c7 -10 14
-29 14 -43 1 -19 4 -15 10 14 11 57 3 -179 -11 -290 -5 -49 -14 -93 -18 -97
-4 -4 -39 32 -77 80 -76 95 -107 127 -145 147 -17 8 -89 14 -222 17 l-198 4
-1 -40 c-1 -23 -3 -33 -6 -23 -2 9 -9 17 -14 17 -5 0 -9 -85 -10 -202 0 -112
-3 -277 -5 -366 l-5 -164 238 4 238 3 58 36 c46 29 64 35 85 30 l27 -8 0 -175
c0 -117 -4 -183 -12 -199 -7 -13 -19 -41 -27 -61 -8 -21 -19 -38 -24 -38 -11
0 -36 57 -46 105 -20 89 -88 113 -338 122 l-188 6 0 -442 0 -441 24 -10 c83
-31 346 -43 466 -20 76 14 139 62 140 106 0 29 18 48 73 78 74 40 87 31 87
-57 0 -77 -21 -180 -45 -227 -9 -17 -39 -49 -68 -71 l-52 -42 -484 6 c-286 4
-488 10 -495 16 -6 5 -36 11 -66 13 -40 2 -56 7 -58 19 -3 16 81 108 133 145
l29 22 9 378 c10 432 3 1424 -10 1469 -11 34 -86 79 -154 90 -24 4 -43 14 -47
23 -3 10 -12 22 -19 27 -24 18 24 53 77 57 25 2 288 2 585 1 502 -1 540 -3
552 -19z m10001 -104 c2 -111 -16 -283 -34 -312 -8 -12 -44 21 -44 39 0 7 -6
16 -14 19 -8 3 -17 13 -20 22 -4 9 -19 40 -34 67 -37 68 -73 85 -182 86 -47 0
-139 4 -205 8 -66 5 -126 6 -132 4 -10 -4 -13 -91 -13 -388 0 -223 4 -386 9
-389 5 -4 105 -2 223 3 158 8 232 15 288 30 127 35 116 49 124 -156 4 -98 8
-189 9 -203 2 -23 -2 -25 -42 -28 -43 -3 -47 -1 -92 47 -26 28 -50 60 -54 70
-12 39 -85 52 -281 49 l-179 -3 -3 -435 -2 -435 22 -15 c18 -12 70 -15 252
-17 216 -3 232 -2 273 18 50 24 64 47 88 143 18 71 47 110 74 101 7 -3 20 0
27 6 21 17 27 -29 21 -164 -9 -213 -43 -275 -158 -296 -109 -18 -726 -10 -713
11 3 4 -14 8 -38 9 -24 0 -70 2 -103 3 -65 3 -88 -1 -79 -15 3 -5 -2 -9 -11
-9 -9 0 -14 4 -11 9 3 5 -14 9 -39 9 -24 1 -47 -3 -50 -8 -8 -13 -52 -13 -60
0 -3 6 0 10 8 10 8 0 18 12 21 26 5 17 12 24 21 20 25 -9 44 4 56 41 7 22 16
33 24 29 8 -3 17 4 21 17 4 12 11 25 16 28 5 4 13 44 18 90 11 114 11 1703 1
1759 -7 35 -19 54 -56 88 -27 24 -57 42 -70 42 -13 0 -27 5 -30 10 -4 6 -11 8
-16 5 -5 -4 -9 -2 -9 3 0 5 -9 13 -21 18 -20 9 -20 10 3 35 l24 25 584 -2 585
-2 3 -122z m1712 115 c107 -16 224 -53 272 -87 14 -10 29 -18 32 -18 3 0 14
-8 24 -17 10 -10 29 -25 42 -33 95 -62 153 -136 165 -210 4 -25 12 -50 17 -57
12 -15 23 -257 14 -307 -4 -20 -11 -34 -16 -31 -5 3 -14 -14 -20 -37 -23 -95
-115 -239 -239 -378 -22 -25 -41 -49 -41 -53 0 -5 35 -53 78 -107 42 -54 88
-117 102 -139 14 -22 49 -66 77 -98 29 -32 81 -94 115 -138 71 -90 275 -296
328 -331 44 -29 207 -80 280 -88 100 -11 111 -16 103 -47 -9 -34 -45 -48 -163
-64 -155 -20 -233 -19 -316 6 -132 39 -166 62 -325 222 -83 83 -149 157 -149
168 0 10 -5 21 -10 24 -6 4 -19 23 -29 43 -16 32 -71 100 -142 178 -10 12 -19
27 -19 34 0 10 -60 92 -105 143 -8 9 -15 21 -15 27 0 12 -70 60 -88 60 -8 0
-29 7 -46 15 -25 12 -61 15 -152 13 l-119 -3 -7 -40 c-8 -49 -10 -677 -2 -699
3 -9 12 -16 19 -16 7 0 15 -4 17 -9 2 -5 28 -18 58 -28 80 -27 88 -34 96 -79
5 -33 3 -42 -11 -48 -9 -3 -114 -11 -233 -17 -217 -11 -345 -6 -389 14 -36 16
-29 53 20 102 61 61 92 98 101 120 8 22 9 1458 0 1685 -6 156 -14 196 -39 186
-8 -3 -42 16 -77 42 -50 38 -64 54 -66 78 l-3 30 378 3 c303 2 399 -1 483 -14z
m-18327 -453 l128 -3 57 -57 c51 -51 60 -67 85 -147 16 -50 35 -101 42 -115 7
-14 16 -42 20 -62 4 -21 11 -35 16 -33 5 3 11 -7 15 -22 12 -56 17 -68 30 -84
8 -8 18 -35 23 -60 5 -24 16 -62 25 -84 8 -22 15 -47 16 -56 0 -9 7 -22 15
-29 7 -6 17 -33 21 -58 3 -26 12 -54 19 -62 7 -8 16 -29 19 -47 4 -17 16 -48
27 -69 10 -21 19 -46 19 -55 0 -9 6 -22 14 -28 8 -7 18 -31 21 -54 4 -23 12
-51 19 -62 6 -11 16 -42 22 -70 6 -28 15 -49 22 -48 6 2 14 -14 18 -35 3 -20
15 -55 25 -78 10 -22 19 -51 19 -65 0 -13 9 -56 20 -94 24 -83 29 -158 10
-179 -7 -9 -26 -16 -42 -16 -16 0 -27 -4 -24 -9 3 -5 -20 -11 -52 -15 -77 -7
-2499 -6 -2537 1 -26 5 -27 7 -10 13 15 5 7 9 -30 14 -28 4 -66 18 -86 31 -33
22 -38 31 -54 102 -16 69 -16 89 -5 168 12 87 46 209 74 263 7 15 17 43 21 62
7 37 39 129 60 170 7 14 15 39 19 55 7 31 18 58 55 135 11 25 21 49 21 53 0 9
11 35 51 122 10 22 25 61 33 85 8 25 19 59 25 75 6 17 24 75 41 130 43 139
107 265 145 287 17 9 59 21 95 26 59 9 1117 12 1433 4z m4044 -764 c-3 -8 -6
-5 -6 6 -1 11 2 17 5 13 3 -3 4 -12 1 -19z m12560 -40 c-3 -7 -5 -2 -5 12 0
14 2 19 5 13 2 -7 2 -19 0 -25z m-889 -985 c-10 -2 -28 -2 -40 0 -13 2 -5 4
17 4 22 1 32 -1 23 -4z m-28161 -2748 c170 -3 345 -5 390 -5 109 0 117 -8 111
-108 -4 -55 -10 -78 -24 -92 -30 -29 -162 -42 -390 -38 -154 2 -205 0 -217
-10 -22 -19 -47 -75 -58 -135 -12 -63 -30 -238 -26 -251 2 -6 107 -11 253 -13
261 -3 338 -13 354 -43 15 -27 12 -106 -4 -145 l-15 -35 -93 -1 c-51 -1 -187
-2 -303 -3 l-210 -1 -3 -30 c-1 -16 -10 -57 -20 -90 l-17 -60 -5 40 -6 40 -11
-55 c-6 -30 -19 -109 -28 -175 -19 -132 -60 -317 -76 -347 -10 -18 -19 -20
-84 -16 -41 2 -77 7 -82 11 -11 12 -4 182 12 262 7 39 17 99 20 135 4 36 13
92 20 125 7 33 16 83 20 110 3 28 13 73 20 100 26 91 47 209 57 320 13 149 46
363 63 400 7 17 16 51 19 78 4 26 11 45 16 42 6 -3 148 -8 317 -10z m2791 -5
c30 -25 35 -60 23 -150 -15 -111 -70 -389 -96 -485 -8 -27 -17 -81 -20 -120
-9 -105 -44 -328 -66 -430 -79 -352 -90 -382 -132 -369 -11 3 -30 0 -44 -7
-19 -10 -31 -10 -57 -1 -45 17 -117 15 -154 -4 -44 -21 -129 -28 -179 -15 -57
16 -156 108 -188 175 -51 108 -56 323 -14 544 24 125 53 192 120 283 90 122
157 165 273 176 73 7 145 -8 188 -38 15 -11 28 -17 28 -12 0 4 8 -4 18 -19
l18 -27 17 29 c10 16 22 62 27 102 10 75 13 90 57 243 31 112 59 145 117 145
25 -1 50 -8 64 -20z m10770 -13 c19 -20 24 -35 24 -71 -1 -54 -36 -141 -66
-161 -22 -16 -122 -20 -143 -7 -37 24 -39 122 -2 193 39 78 132 101 187 46z
m356 23 c25 -9 26 -12 26 -98 0 -118 -11 -246 -20 -232 -4 7 -13 -26 -19 -72
-7 -45 -16 -105 -21 -133 -6 -27 -17 -90 -25 -140 -35 -203 -47 -267 -75 -410
-16 -82 -36 -199 -45 -260 -23 -171 -31 -206 -46 -216 -8 -5 -44 -9 -81 -9
-49 0 -71 4 -83 17 -26 25 -18 95 65 562 11 63 29 171 41 240 11 70 29 171 40
226 11 55 26 141 33 190 40 256 48 284 83 316 36 31 79 38 127 19z m6587 -20
c21 -24 16 -86 -18 -235 -26 -116 -43 -235 -36 -248 2 -4 21 7 42 24 43 37
149 68 228 69 58 0 126 -22 160 -53 84 -76 97 -264 38 -567 -8 -41 -26 -154
-40 -250 -41 -289 -43 -292 -168 -288 l-82 3 3 60 c2 33 9 92 17 130 8 39 24
124 35 190 12 66 30 164 40 218 11 53 22 150 26 215 6 102 5 119 -10 131 -18
15 -77 11 -149 -11 -52 -16 -145 -106 -174 -168 -48 -104 -103 -378 -118 -589
-6 -87 -21 -134 -56 -177 -14 -18 -88 -26 -124 -14 -61 20 -68 93 -25 270 10
41 28 143 40 225 32 226 41 273 65 360 13 44 30 141 39 215 32 268 38 306 58
382 12 45 28 84 41 96 46 43 136 49 168 12z m2490 20 c17 -10 19 -22 19 -113
0 -59 -4 -96 -9 -89 -5 9 -11 -10 -15 -50 -3 -35 -22 -130 -41 -213 -19 -82
-46 -224 -60 -315 -23 -147 -71 -428 -95 -550 -5 -25 -12 -65 -16 -90 -3 -25
-13 -66 -21 -91 -8 -25 -13 -52 -11 -60 2 -10 -5 -13 -22 -12 -14 1 -38 3 -55
4 -16 1 -33 6 -36 11 -3 5 -45 10 -93 11 -64 1 -89 -2 -95 -12 -6 -9 -38 -15
-102 -18 -84 -4 -98 -2 -133 19 -57 33 -119 114 -152 199 -28 72 -29 79 -29
254 l0 180 43 124 c54 157 84 213 149 279 84 85 216 133 307 112 24 -5 76 -28
115 -51 42 -24 76 -38 81 -33 5 5 18 68 30 139 12 72 28 170 36 220 8 49 21
96 29 104 21 21 94 50 128 50 16 1 37 -4 48 -9z m2077 4 c55 -11 72 -37 72
-109 0 -68 -8 -96 -39 -135 -16 -21 -29 -25 -90 -28 -65 -4 -72 -2 -97 23 -25
25 -26 31 -21 94 8 103 30 134 102 152 42 10 39 10 73 3z m-24190 -16 c8 -8
12 -45 12 -100 0 -87 -12 -127 -45 -150 -14 -11 -157 -9 -174 1 -11 7 -13 28
-8 103 8 115 12 127 51 144 39 17 148 18 164 2z m23434 -5 c26 -29 30 -59 19
-135 -30 -211 -73 -468 -86 -513 -18 -65 -47 -236 -85 -515 -50 -366 -61 -390
-165 -390 -34 0 -66 5 -73 12 -18 18 -15 93 9 210 11 57 34 191 50 298 16 107
38 251 49 320 11 69 27 170 34 225 29 202 85 451 109 482 15 19 28 23 71 23
38 0 57 -5 68 -17z m374 9 c55 -37 49 -135 -37 -567 -22 -110 -51 -272 -64
-360 -54 -352 -85 -541 -95 -569 -19 -55 -37 -66 -109 -66 -97 0 -96 -2 -82
131 7 63 19 143 27 178 16 71 37 200 60 366 8 61 17 117 20 125 11 31 54 253
75 390 12 80 32 195 44 255 21 106 23 110 48 110 14 1 29 4 33 8 10 9 66 9 80
-1z m-9390 -155 c-4 -56 -11 -135 -17 -175 -10 -67 -9 -75 8 -87 10 -8 28 -15
41 -15 13 0 32 -5 42 -10 62 -33 35 -108 -57 -158 -106 -58 -119 -94 -175
-507 -38 -282 -39 -275 34 -275 20 0 40 -4 43 -10 3 -5 9 -40 12 -78 6 -78 3
-83 -69 -101 -69 -16 -107 -14 -158 12 -83 40 -93 58 -93 156 0 82 17 233 49
441 43 271 44 316 11 357 -31 38 -47 78 -47 117 0 36 19 58 64 73 16 5 33 16
36 24 4 8 13 25 19 38 7 13 30 73 51 133 21 60 46 120 54 133 16 24 21 25 130
32 l28 2 -6 -102z m-7764 33 c-2 -30 -10 -74 -18 -98 -7 -23 -17 -74 -20 -112
-6 -62 -5 -70 12 -77 10 -5 40 -21 67 -36 43 -26 47 -32 47 -66 0 -56 -13 -68
-127 -111 -25 -9 -35 -22 -52 -68 -11 -32 -25 -91 -31 -132 -5 -41 -17 -127
-25 -190 -9 -63 -20 -122 -25 -131 -14 -26 -25 -189 -12 -189 6 0 13 12 15 28
4 25 4 24 6 -6 0 -21 7 -35 19 -39 9 -4 23 -15 30 -25 7 -10 17 -16 22 -13 13
8 20 -22 20 -89 0 -88 -9 -96 -105 -103 -68 -5 -87 -2 -126 16 -26 12 -56 32
-68 45 -50 53 -48 218 4 446 38 166 55 269 57 355 2 97 -3 116 -42 138 -28 17
-30 22 -30 76 0 57 1 59 34 75 19 9 45 16 59 16 21 0 26 5 29 38 7 53 68 274
80 289 11 14 60 21 133 19 l50 -1 -3 -55z m12481 46 c3 -8 3 -74 -1 -148 -3
-73 -8 -122 -12 -108 l-6 25 -7 -27 c-9 -34 20 -83 68 -118 21 -15 35 -34 35
-47 0 -22 -30 -83 -42 -83 -3 0 -29 -10 -57 -22 l-50 -23 -20 -85 c-11 -47
-22 -110 -26 -140 -4 -30 -18 -116 -32 -190 -41 -216 -42 -224 -42 -253 -1
-21 12 -41 49 -77 28 -28 55 -50 60 -50 13 0 13 -76 0 -101 -28 -51 -149 -74
-221 -41 -80 37 -84 47 -84 207 1 102 6 170 22 250 43 217 54 291 60 386 6 92
5 97 -18 120 -42 40 -59 73 -59 112 0 31 5 40 33 57 17 11 42 20 55 20 12 0
24 6 27 13 2 6 22 71 45 143 40 129 55 155 105 182 30 17 112 15 118 -2z
m-14698 -332 c39 -8 121 -60 163 -104 44 -46 91 -146 102 -218 19 -112 5 -297
-24 -322 -20 -16 -235 -29 -426 -25 -219 4 -225 2 -217 -86 7 -77 39 -141 90
-181 37 -29 48 -33 105 -33 71 0 48 -17 207 158 l60 67 55 0 c39 0 62 -6 80
-20 14 -11 21 -20 16 -20 -5 0 -3 -6 3 -14 10 -11 5 -29 -20 -82 -24 -52 -53
-90 -124 -161 -51 -51 -98 -93 -105 -93 -6 0 -24 -10 -41 -22 -27 -21 -42 -23
-137 -23 -125 0 -168 16 -251 93 -115 109 -149 261 -121 544 22 217 133 425
268 504 73 43 206 59 317 38z m10657 2 c162 -39 251 -172 279 -416 4 -41 6
-86 3 -100 -9 -41 -40 -104 -60 -121 -18 -16 -65 -35 -73 -30 -2 2 -8 -3 -12
-11 -6 -9 -11 -10 -16 -2 -9 12 -480 13 -501 1 -21 -14 -15 -120 12 -180 29
-66 61 -92 122 -101 79 -10 121 7 192 81 34 36 62 72 62 79 0 8 9 23 20 34 38
38 180 16 180 -28 0 -23 -32 -118 -53 -158 -18 -34 -103 -123 -170 -178 -43
-35 -57 -40 -144 -53 -115 -17 -156 -10 -236 41 -69 44 -108 90 -146 170 -45
94 -54 158 -48 331 9 221 48 329 184 505 64 83 109 111 216 134 81 18 119 18
189 2z m5723 -14 c37 -12 68 -35 120 -87 62 -62 73 -79 95 -145 22 -68 25 -91
24 -240 0 -155 -2 -172 -31 -271 -43 -147 -83 -223 -151 -286 -64 -60 -185
-127 -256 -143 -59 -13 -149 1 -222 36 -73 34 -160 129 -185 201 -24 70 -37
237 -28 373 15 217 144 454 294 540 85 49 232 58 340 22z m9766 -17 c26 -14
55 -25 64 -25 8 0 15 -7 15 -15 0 -8 5 -15 11 -15 6 0 9 7 6 15 -8 20 2 25
101 39 101 15 118 12 126 -19 9 -35 -10 -195 -29 -238 -9 -22 -18 -83 -22
-148 -3 -61 -9 -105 -13 -98 -4 6 -13 -29 -19 -77 -6 -49 -16 -102 -21 -119
-14 -46 -30 -190 -32 -290 -1 -74 -2 -82 -8 -45 -4 25 -8 36 -9 25 -20 -265
-41 -327 -149 -435 -87 -87 -171 -130 -253 -130 -66 0 -202 26 -241 46 -85 44
-156 153 -165 255 -7 68 -4 70 86 77 l67 4 42 -56 c79 -104 108 -121 189 -111
87 11 141 59 172 155 21 63 17 105 -8 94 -28 -13 -186 -16 -228 -5 -103 28
-215 146 -253 267 -29 94 -29 313 0 407 11 35 21 76 22 90 1 14 5 24 9 21 4
-2 13 13 19 33 7 21 17 43 24 48 12 11 63 79 108 143 38 54 131 123 185 137
58 15 138 3 204 -30z m-29857 5 c69 -33 98 -85 111 -201 10 -89 -13 -273 -96
-782 -11 -68 -33 -126 -53 -139 -18 -13 -151 -9 -164 4 -16 16 -15 72 3 140 8
31 19 85 25 120 5 35 22 126 36 203 39 215 42 233 49 336 5 87 4 97 -15 122
-17 21 -30 27 -61 27 -115 0 -236 -114 -277 -260 -26 -93 -59 -240 -67 -300
-4 -25 -20 -110 -35 -190 -16 -80 -30 -158 -32 -175 -3 -30 -3 -30 -72 -33
-50 -2 -75 1 -93 13 -24 16 -25 20 -20 103 3 48 15 134 26 192 12 58 28 150
37 205 8 55 28 170 44 255 15 85 34 194 40 242 16 113 22 122 94 119 71 -2
133 -31 138 -63 3 -22 3 -22 29 6 26 27 96 59 169 76 50 12 134 3 184 -20z
m2375 -3 c20 -14 47 -43 61 -65 14 -23 31 -42 37 -42 7 0 36 18 65 39 106 81
144 96 238 95 101 0 165 -26 208 -82 26 -34 27 -42 30 -170 3 -96 -1 -154 -12
-205 -33 -149 -75 -458 -77 -572 -1 -57 -3 -64 -9 -35 l-7 35 -3 -30 c-4 -58
-7 -75 -14 -82 -9 -9 -201 -11 -210 -2 -6 5 29 223 38 237 3 5 12 64 21 132 9
68 18 127 21 132 8 12 44 306 44 354 0 57 -26 88 -73 87 -72 -2 -152 -60 -192
-138 -11 -22 -23 -42 -26 -45 -4 -3 -12 -25 -19 -50 -6 -25 -15 -58 -20 -75
-5 -16 -14 -64 -20 -105 -6 -41 -15 -91 -20 -110 -5 -19 -14 -75 -20 -125 -9
-74 -31 -168 -66 -288 -5 -16 -16 -17 -97 -15 l-92 3 1 55 c0 30 11 109 23
175 70 358 115 639 108 667 -5 18 -19 31 -49 42 -60 25 -112 13 -155 -33 -44
-47 -109 -142 -118 -172 -4 -13 -11 -28 -15 -34 -13 -16 -47 -198 -65 -340
-31 -254 -52 -332 -95 -355 -33 -18 -151 -25 -160 -10 -10 17 -1 98 45 375 8
50 22 135 30 190 15 98 46 277 65 365 5 25 9 65 10 89 0 51 30 106 63 115 12
3 45 6 73 6 44 0 54 -4 68 -25 9 -13 16 -38 16 -55 0 -43 20 -35 44 17 17 36
26 43 75 57 112 32 195 30 250 -7z m2813 18 c101 -26 156 -68 206 -159 33 -61
32 -238 -3 -385 -14 -58 -30 -115 -35 -126 -16 -36 -23 -108 -29 -290 l-6
-180 -75 2 c-87 2 -130 15 -137 43 -7 25 -14 25 -44 2 -13 -11 -46 -32 -73
-47 -45 -26 -56 -29 -147 -28 -156 2 -216 37 -270 159 -29 64 -29 63 -36 175
-5 89 -4 100 20 152 14 31 38 73 53 92 55 73 248 137 454 150 144 9 135 5 155
84 15 64 15 71 1 94 -23 34 -102 74 -162 82 -67 9 -110 -13 -190 -98 -66 -70
-100 -84 -171 -71 -80 14 -87 29 -52 115 33 87 118 181 184 207 104 41 260 53
357 27z m6095 -17 c38 -18 133 -114 133 -135 0 -4 7 -20 15 -36 20 -39 35
-160 35 -286 0 -164 -24 -269 -94 -412 -53 -107 -94 -158 -178 -221 -139 -105
-234 -103 -363 7 -28 25 -55 45 -58 45 -5 0 -16 -74 -36 -255 -14 -115 -55
-241 -86 -261 -21 -14 -29 -14 -76 0 -65 20 -89 41 -89 78 0 30 38 276 44 287
9 15 85 413 91 476 9 98 44 332 56 378 6 22 17 76 24 120 25 143 42 209 56
218 23 14 118 10 149 -6 17 -9 31 -23 31 -33 1 -16 2 -16 6 1 2 9 11 17 19 17
8 0 40 9 71 19 101 35 174 34 250 -1z m1734 -5 c76 -38 135 -91 156 -142 8
-19 17 -67 20 -105 8 -102 -8 -217 -78 -556 -14 -65 -19 -126 -18 -197 2 -69
-2 -108 -9 -115 -19 -19 -172 6 -194 32 -21 25 -39 25 -68 0 -13 -11 -29 -20
-35 -20 -7 0 -24 -9 -39 -21 -22 -17 -42 -21 -125 -22 -92 -2 -103 0 -153 27
-139 75 -199 266 -138 440 57 159 170 222 463 257 87 10 162 21 167 24 11 7
40 93 40 120 0 54 -87 114 -166 115 -22 0 -63 -7 -91 -15 -49 -15 -80 -42
-161 -139 -22 -26 -28 -28 -78 -24 -54 5 -94 28 -94 54 0 34 45 125 91 187 86
115 143 137 334 134 102 -2 115 -4 176 -34z m2354 2 c69 -35 113 -86 144 -170
76 -204 -50 -253 -197 -77 -52 62 -118 97 -164 87 -71 -15 -118 -62 -118 -119
0 -35 53 -86 175 -164 173 -111 183 -119 210 -160 53 -80 59 -275 11 -369 -62
-121 -184 -185 -356 -185 -80 0 -97 4 -154 32 -86 41 -169 130 -191 202 -8 28
-15 80 -15 115 0 59 2 63 30 78 16 8 49 18 74 21 36 5 47 3 65 -15 11 -11 21
-27 21 -35 0 -18 28 -81 58 -127 30 -50 66 -63 158 -57 68 5 79 8 107 36 26
26 31 40 35 89 4 57 3 59 -34 96 -22 20 -67 50 -100 66 -151 71 -248 171 -286
295 -18 60 -19 75 -9 120 16 71 56 155 94 194 62 65 120 82 277 79 95 -2 111
-5 165 -32z m910 18 c34 -12 67 -35 105 -74 l55 -56 44 44 c24 25 62 57 84 71
37 25 48 27 131 25 132 -2 214 -44 236 -121 19 -68 5 -323 -30 -548 -61 -397
-77 -454 -131 -473 -44 -15 -111 -14 -134 2 -16 12 -17 24 -12 93 3 43 19 142
35 219 58 276 72 352 83 463 9 98 8 116 -5 137 -36 55 -132 39 -207 -35 -27
-27 -49 -53 -49 -59 0 -6 -6 -11 -14 -11 -8 0 -17 -14 -21 -32 -4 -18 -11 -37
-15 -43 -5 -5 -15 -57 -24 -115 -8 -58 -25 -145 -36 -195 -11 -49 -29 -137
-40 -195 -21 -110 -41 -185 -60 -219 -9 -18 -20 -21 -78 -21 -99 0 -106 8
-100 108 4 44 13 111 22 149 27 116 55 256 62 308 3 28 12 88 20 134 8 46 14
118 14 161 0 73 -1 77 -25 88 -59 27 -105 9 -188 -72 -94 -93 -138 -232 -191
-601 -8 -55 -19 -120 -25 -145 -5 -25 -10 -64 -11 -87 l0 -43 -88 0 c-55 0
-92 4 -100 12 -17 17 -15 97 4 198 8 47 24 137 34 200 10 63 23 138 29 165 17
84 49 264 66 375 9 58 19 115 21 127 7 35 55 54 127 51 l62 -3 10 -42 c14 -57
21 -61 36 -18 15 40 44 57 134 80 70 18 112 18 170 -2z m1421 -10 c52 -28 138
-121 163 -179 28 -63 41 -143 41 -256 0 -100 -12 -148 -43 -180 -22 -21 -129
-30 -399 -32 l-213 -1 2 -81 c1 -88 20 -139 65 -182 32 -29 110 -39 164 -22
46 16 161 121 180 166 13 30 15 31 82 33 85 2 96 -7 87 -76 -15 -101 -86 -208
-173 -259 -141 -83 -151 -86 -252 -88 -81 -1 -102 2 -143 22 -163 81 -234 260
-209 528 22 243 76 391 183 507 95 105 155 128 319 124 84 -2 113 -7 146 -24z
m4355 5 c83 -27 146 -94 174 -184 22 -72 16 -232 -14 -356 -29 -123 -59 -332
-67 -476 -3 -67 -9 -124 -13 -126 -3 -2 -42 5 -86 15 -62 15 -86 26 -108 50
l-29 31 -32 -31 c-18 -17 -36 -31 -41 -31 -4 0 -23 -11 -40 -25 -63 -47 -207
-50 -280 -5 -52 32 -123 117 -137 163 -7 23 -12 87 -12 142 2 123 27 197 90
265 35 38 56 50 126 72 126 40 294 70 403 72 l60 1 5 65 c3 36 1 77 -3 91 -12
39 -77 71 -158 77 -85 6 -128 -14 -215 -100 -67 -65 -121 -86 -173 -66 -53 20
-53 45 -2 153 65 139 128 186 288 215 59 11 219 4 264 -12z m2074 8 c106 -28
179 -85 226 -178 19 -38 21 -53 16 -138 -5 -82 -47 -316 -61 -339 -13 -20 -56
-338 -56 -410 0 -59 -4 -83 -13 -87 -23 -8 -159 34 -183 57 l-23 21 -93 -45
c-179 -86 -280 -71 -404 62 -52 55 -70 214 -39 336 38 145 136 220 335 255 36
6 91 18 122 26 32 8 89 14 127 14 83 0 91 8 91 93 0 65 -23 100 -84 128 -97
44 -188 15 -296 -95 -63 -65 -65 -66 -117 -66 -95 0 -115 56 -61 170 24 49
112 141 158 165 83 43 255 58 355 31z m1064 -6 c28 -14 88 -85 109 -127 38
-76 36 -125 -13 -403 -13 -74 -31 -191 -40 -260 -8 -69 -27 -178 -42 -242
l-28 -118 -68 0 c-98 0 -107 7 -107 85 0 88 25 263 61 420 27 119 49 293 49
388 0 24 -7 44 -21 58 -29 29 -89 20 -171 -23 -72 -39 -111 -74 -136 -126 -37
-73 -84 -286 -97 -437 -10 -108 -55 -318 -72 -337 -13 -14 -32 -18 -88 -18
-42 0 -76 5 -83 12 -26 26 -14 131 53 463 42 209 75 440 75 527 0 75 14 124
40 138 36 19 122 12 172 -15 l47 -25 58 22 c32 12 74 25 93 29 43 9 185 2 209
-11z m856 -2 c64 -24 125 -79 155 -138 27 -53 52 -163 48 -214 l-3 -41 -55 -3
c-68 -3 -107 18 -135 74 -36 71 -77 123 -105 132 -44 16 -117 -3 -166 -43 -49
-40 -75 -79 -111 -167 -25 -59 -27 -74 -30 -263 -4 -222 -2 -233 57 -273 29
-20 43 -23 80 -18 66 9 104 41 176 148 36 53 74 100 86 103 25 9 109 -3 126
-17 16 -14 15 -64 -4 -127 -29 -97 -87 -181 -163 -234 -96 -66 -131 -80 -217
-85 -72 -4 -89 -1 -135 20 -71 33 -110 66 -157 138 -75 112 -90 305 -43 546
34 175 96 300 197 396 83 78 282 111 399 66z m866 5 c42 -14 69 -32 117 -81
34 -35 62 -69 62 -76 0 -8 7 -19 15 -26 8 -7 20 -39 27 -71 7 -32 16 -59 20
-59 4 0 8 -42 8 -92 0 -101 -19 -172 -57 -210 -32 -31 -220 -49 -435 -41
l-167 6 -12 -29 c-18 -48 -7 -136 24 -183 57 -85 147 -126 211 -96 45 22 179
172 171 193 -3 8 -3 23 1 34 5 18 7 18 18 2 9 -12 15 -14 20 -5 5 7 13 8 24 2
9 -5 33 -7 52 -5 50 6 71 -13 77 -68 4 -36 0 -57 -18 -94 -25 -50 -178 -214
-200 -214 -7 0 -28 -12 -48 -27 -33 -25 -45 -28 -137 -31 -115 -5 -150 4 -217
51 -76 54 -156 170 -171 245 -13 70 -16 207 -6 310 9 100 16 124 55 213 25 54
45 101 45 104 0 2 16 30 34 63 63 107 140 166 246 192 63 15 184 11 241 -7z
m1469 -12 c37 -14 71 -37 101 -68 101 -105 124 -190 116 -426 -7 -219 -36
-319 -135 -469 -74 -113 -171 -179 -288 -198 -86 -14 -139 -6 -220 30 -129 60
-197 167 -231 367 -14 83 -14 112 -4 200 15 130 32 190 94 323 23 51 98 149
146 192 40 36 63 48 118 61 90 22 228 16 303 -12z m960 -2 c32 -41 40 -165 15
-209 l-14 -25 -2 30 c-1 17 -1 33 0 37 0 4 3 26 6 50 l5 43 -16 -51 -16 -52
-61 -12 c-98 -20 -183 -71 -219 -131 -49 -80 -100 -272 -133 -496 -24 -164
-40 -248 -55 -288 -6 -18 -15 -19 -91 -16 -46 1 -87 5 -92 8 -10 6 2 147 19
216 32 128 59 277 79 437 15 126 25 193 45 315 12 75 47 144 78 156 37 14 73
7 86 -16 6 -11 14 -22 17 -25 4 -3 11 -25 17 -50 l9 -45 26 57 c30 65 45 75
125 88 91 14 152 7 172 -21z m-22124 -1 c21 -21 31 -97 40 -293 4 -99 9 -172
11 -162 6 23 8 23 54 -23 31 -30 40 -46 36 -62 -10 -35 8 -6 22 37 7 22 45
126 86 230 40 105 81 211 90 237 10 29 24 50 36 53 12 4 93 4 180 0 148 -7
161 -9 174 -29 13 -20 30 -198 39 -406 2 -47 10 -121 18 -165 l13 -80 14 33
c8 18 29 58 48 90 20 31 57 122 85 202 49 144 96 260 109 270 4 3 14 22 22 43
l16 37 68 0 c114 0 113 1 114 -94 1 -44 5 -108 9 -141 6 -53 7 -46 10 65 3
107 5 91 11 -110 4 -129 14 -271 22 -315 13 -73 15 -78 25 -55 27 60 142 342
142 349 0 8 79 209 100 253 7 15 20 30 29 34 31 14 284 17 316 3 17 -7 33 -12
37 -11 10 2 13 -20 49 -373 13 -130 20 -166 30 -159 5 3 9 -13 9 -35 0 -23 5
-41 10 -41 14 0 65 114 110 245 60 178 142 360 168 373 29 16 82 22 123 16
l38 -6 7 -59 c4 -32 10 -57 14 -54 10 6 20 -108 21 -255 1 -69 5 -154 9 -190
l7 -65 2 55 c2 44 5 50 11 30 4 -14 8 -49 9 -79 1 -30 3 -52 6 -49 10 9 73
168 80 199 10 44 97 270 141 366 43 94 69 113 151 113 72 0 77 -6 68 -84 -3
-36 -13 -72 -21 -80 -15 -15 -68 -143 -91 -221 -16 -53 -62 -167 -113 -281
-17 -38 -37 -82 -45 -99 -7 -16 -24 -55 -38 -85 -13 -30 -28 -66 -32 -80 -4
-14 -11 -29 -15 -35 -5 -5 -11 -27 -15 -47 -4 -21 -10 -38 -14 -38 -4 0 -14
-16 -21 -36 -17 -42 -34 -50 -127 -59 -52 -6 -71 -4 -80 6 -14 18 -33 175 -33
270 0 112 -22 409 -30 404 -4 -3 -11 -17 -15 -32 -3 -16 -29 -77 -57 -138 -45
-97 -67 -154 -138 -361 -22 -62 -47 -113 -68 -136 -12 -14 -31 -18 -93 -18
-94 0 -92 -2 -109 130 -6 52 -18 129 -26 170 -8 41 -19 152 -24 245 -19 323
-54 521 -76 428 -4 -15 -17 -52 -30 -81 -13 -29 -24 -57 -24 -61 0 -5 -14 -40
-31 -78 -17 -37 -51 -118 -75 -180 -23 -61 -61 -149 -83 -196 -22 -46 -43 -97
-47 -113 -12 -48 -103 -238 -121 -251 -9 -7 -45 -13 -80 -13 -106 0 -108 6
-118 297 -3 94 -11 202 -18 240 -7 37 -10 88 -6 113 3 25 5 46 4 48 -2 2 -12
-14 -23 -35 -52 -96 -87 -177 -127 -293 -64 -189 -125 -333 -147 -352 -25 -22
-159 -26 -176 -5 -30 36 -65 418 -78 855 -3 133 -10 242 -14 242 -11 0 -20
-38 -20 -82 0 -21 -4 -38 -10 -38 -5 0 -10 -4 -10 -9 0 -5 -22 -55 -48 -112
-61 -132 -77 -169 -156 -364 -205 -507 -203 -505 -310 -505 -92 0 -93 1 -99
165 -4 97 -14 177 -32 260 -15 66 -30 138 -34 160 l-7 40 -8 -30 c-4 -16 -34
-84 -66 -150 -32 -66 -66 -147 -75 -180 -29 -103 -69 -205 -91 -232 -18 -23
-30 -27 -85 -31 -107 -6 -112 -2 -132 124 -9 60 -21 169 -27 242 -5 74 -14
150 -19 170 -5 20 -12 75 -15 122 -4 47 -14 155 -23 240 -18 172 -13 202 37
227 27 14 119 17 135 5 29 -20 38 -74 46 -257 11 -284 10 -264 18 -235 5 19 9
7 14 -45 4 -38 7 -88 8 -110 l0 -40 35 70 c19 39 56 135 83 215 54 159 94 255
110 264 6 4 13 29 17 56 7 52 30 77 84 92 36 10 100 2 116 -14z m16195 1 c39
-20 41 -53 15 -183 -14 -66 -32 -170 -41 -231 -9 -60 -27 -166 -40 -235 -13
-69 -30 -170 -39 -225 -9 -55 -25 -131 -36 -170 -10 -38 -21 -82 -24 -96 l-6
-26 -62 14 c-129 30 -130 38 -39 508 22 110 49 265 61 345 26 169 55 291 73
302 18 11 115 10 138 -3z m-24226 -19 c21 -18 19 -68 -10 -195 -14 -61 -29
-148 -35 -195 -6 -47 -26 -166 -44 -265 -19 -99 -39 -220 -46 -270 -6 -49 -18
-111 -27 -137 l-15 -47 -79 -3 c-44 -2 -84 -1 -89 0 -24 8 -10 168 35 392 8
41 26 131 39 200 34 172 53 284 61 355 8 69 24 142 37 169 9 16 19 18 84 14
40 -3 80 -11 89 -18z m12679 -9 c15 -17 17 -30 11 -83 -9 -87 -61 -394 -84
-503 -11 -49 -27 -142 -35 -205 -25 -174 -47 -273 -66 -294 -16 -16 -27 -18
-95 -11 -50 4 -78 12 -82 21 -3 7 12 100 32 206 73 383 81 444 110 768 10 105
25 120 120 120 59 0 75 -4 89 -19z m5093 -183 c-3 -8 -6 -5 -6 6 -1 11 2 17 5
13 3 -3 4 -12 1 -19z m12350 -90 c-3 -7 -5 -2 -5 12 0 14 2 19 5 13 2 -7 2
-19 0 -25z m-30910 -192 c3 -3 -38 -6 -93 -5 -59 0 -91 4 -79 8 23 9 162 7
172 -3z m21960 -93 c-2 -21 -4 -6 -4 32 0 39 2 55 4 38 2 -18 2 -50 0 -70z
m7110 -299 c13 -8 26 -26 29 -40 10 -38 -4 -134 -24 -169 -16 -26 -26 -31 -78
-37 -74 -10 -123 4 -125 35 -8 122 30 214 96 230 28 7 76 -2 102 -19z m-17148
7 c19 -12 29 -89 20 -157 -11 -79 -36 -104 -106 -104 -33 0 -63 6 -78 16 -22
14 -25 24 -25 71 0 66 17 138 37 154 26 22 127 35 152 20z"/>
<path d="M6861 10740 c0 -25 3 -51 8 -59 5 -8 7 5 4 35 -6 68 -11 77 -12 24z"/>
<path d="M22194 14350 c0 -69 1 -97 3 -62 2 34 2 90 0 125 -2 34 -3 6 -3 -63z"/>
<path d="M28953 13675 c0 -22 2 -30 4 -17 2 12 2 30 0 40 -3 9 -5 -1 -4 -23z"/>
<path d="M28975 13250 c-3 -5 -1 -10 4 -10 6 0 11 5 11 10 0 6 -2 10 -4 10 -3
0 -8 -4 -11 -10z"/>
<path d="M29018 13253 c7 -3 16 -2 19 1 4 3 -2 6 -13 5 -11 0 -14 -3 -6 -6z"/>
<path d="M28908 13243 c12 -2 30 -2 40 0 9 3 -1 5 -23 4 -22 0 -30 -2 -17 -4z"/>
<path d="M34518 13243 c6 -2 18 -2 25 0 6 3 1 5 -13 5 -14 0 -19 -2 -12 -5z"/>
<path d="M34588 13243 c12 -2 30 -2 40 0 9 3 -1 5 -23 4 -22 0 -30 -2 -17 -4z"/>
<path d="M26577 15283 c-4 -3 -8 -171 -9 -372 l-3 -366 -5 335 -5 335 -4 -360
c-7 -562 -7 -525 9 -536 9 -6 96 -9 221 -7 204 3 206 3 240 29 136 104 196
261 187 487 -7 158 -56 278 -158 380 -74 75 -99 82 -296 82 -94 0 -174 -3
-177 -7z m-10 -905 c-3 -8 -6 -5 -6 6 -1 11 2 17 5 13 3 -3 4 -12 1 -19z"/>
<path d="M26786 13314 c-9 -24 -7 -54 4 -54 6 0 10 16 10 35 0 38 -4 44 -14
19z"/>
<path d="M26510 13250 c-16 -5 18 -8 92 -9 68 -1 119 3 123 9 7 12 -177 12
-215 0z"/>
<path d="M27958 13243 c23 -2 59 -2 80 0 20 2 1 4 -43 4 -44 0 -61 -2 -37 -4z"/>
<path d="M31833 15105 c0 -38 2 -53 4 -32 2 20 2 52 0 70 -2 17 -4 1 -4 -38z"/>
<path d="M31825 13251 c7 -13 111 -15 119 -3 3 5 -24 10 -60 11 -44 1 -64 -1
-59 -8z"/>
<path d="M33541 13249 c19 -12 152 -12 144 1 -3 5 -40 9 -82 9 -50 0 -72 -4
-62 -10z"/>
<path d="M36650 15290 c-30 -3 -61 -9 -67 -13 -10 -6 -13 -188 -13 -855 1
-466 5 -866 9 -890 11 -56 61 -103 133 -125 167 -52 502 -45 647 12 262 105
283 116 357 193 106 109 163 213 203 366 19 72 21 110 21 319 -1 224 -2 242
-24 303 -62 172 -99 246 -165 332 -20 26 -47 62 -60 80 -28 39 -69 70 -131 99
-25 11 -67 31 -95 44 -27 13 -89 41 -137 64 -139 64 -168 69 -408 73 -118 2
-240 1 -270 -2z"/>
<path d="M36308 13243 c23 -2 59 -2 80 0 20 2 1 4 -43 4 -44 0 -61 -2 -37 -4z"/>
<path d="M29650 11403 c0 -7 -9 -22 -20 -33 -11 -11 -20 -27 -20 -35 0 -8 -9
-32 -20 -52 -11 -21 -20 -44 -20 -53 0 -13 -24 -81 -51 -145 -29 -69 -67 -187
-73 -225 -9 -70 -2 -75 86 -60 65 11 231 10 328 -2 21 -2 26 2 28 25 2 15 -1
27 -6 27 -5 0 -12 19 -16 43 -10 59 -47 170 -62 182 -7 6 -15 33 -19 60 -19
133 -50 221 -83 232 -9 3 -25 15 -34 27 -10 12 -18 15 -18 9z"/>
<path d="M23633 8380 c0 -30 2 -43 4 -27 2 15 2 39 0 55 -2 15 -4 2 -4 -28z"/>
<path d="M23633 8260 c0 -25 2 -35 4 -22 2 12 2 32 0 45 -2 12 -4 2 -4 -23z"/>
<path d="M22874 8150 c0 -69 1 -97 3 -62 2 34 2 90 0 125 -2 34 -3 6 -3 -63z"/>
<path d="M22871 8004 c0 -11 3 -14 6 -6 3 7 2 16 -1 19 -3 4 -6 -2 -5 -13z"/>
<path d="M26988 8060 c-3 -8 -35 -96 -71 -195 -81 -219 -176 -508 -170 -515 8
-9 476 -11 485 -2 8 8 -56 214 -96 306 -12 28 -35 92 -50 141 -15 50 -40 124
-56 165 -16 41 -31 84 -33 95 -3 15 -5 16 -9 5z"/>
<path d="M31712 7255 c0 -16 2 -22 5 -12 2 9 2 23 0 30 -3 6 -5 -1 -5 -18z"/>
<path d="M33193 6730 c0 -36 2 -50 4 -32 2 17 2 47 0 65 -2 17 -4 3 -4 -33z"/>
<path d="M36831 8361 c-21 -21 -21 -28 -23 -408 l-3 -388 -2 375 c-2 229 -7
378 -13 384 -11 11 -14 -821 -4 -861 10 -36 63 -46 234 -47 85 -1 166 2 180 6
14 3 32 7 41 7 32 2 106 80 144 152 33 64 38 82 46 181 5 61 7 122 5 137 -3
14 -8 67 -11 116 -6 86 -26 153 -64 215 -21 34 -57 71 -73 74 -7 2 -44 18 -83
36 -66 31 -77 33 -211 38 -134 4 -143 3 -163 -17z m-24 -843 c-3 -7 -5 -2 -5
12 0 14 2 19 5 13 2 -7 2 -19 0 -25z m0 -50 c-3 -8 -6 -5 -6 6 -1 11 2 17 5
13 3 -3 4 -12 1 -19z"/>
<path d="M36781 6853 c0 -190 3 -293 9 -293 12 0 12 431 0 525 -4 37 -8 -50
-9 -232z"/>
<path d="M8589 2908 c-52 -55 -124 -187 -144 -263 -21 -81 -21 -289 1 -355 23
-70 52 -93 122 -98 45 -3 68 1 98 16 49 25 65 43 99 112 15 30 33 66 40 80 40
77 73 315 55 394 -18 80 -112 156 -193 156 -32 0 -45 -7 -78 -42z"/>
<path d="M28825 2945 c-66 -33 -140 -148 -178 -278 -16 -56 -21 -100 -21 -200
-1 -83 3 -130 10 -135 6 -4 14 -23 18 -43 8 -44 39 -87 72 -99 30 -12 124 12
171 44 94 64 149 257 141 498 -4 146 -13 167 -88 206 -52 26 -84 28 -125 7z"/>
<path d="M11530 2941 c-38 -13 -67 -33 -92 -61 -41 -46 -82 -142 -73 -170 8
-26 37 -29 224 -26 194 3 195 4 189 102 -3 48 -10 69 -32 98 -56 73 -121 91
-216 57z"/>
<path d="M22200 2950 c-31 -15 -71 -43 -89 -62 -33 -33 -82 -126 -95 -182 l-7
-29 73 9 c82 10 245 11 299 2 48 -8 63 3 62 48 -3 91 -61 192 -134 229 -37 20
-45 19 -109 -15z"/>
<path d="M27872 2943 c-61 -21 -103 -68 -155 -171 -58 -116 -75 -221 -59 -362
12 -112 38 -166 96 -204 56 -36 99 -42 147 -20 78 34 175 172 215 303 43 139
28 323 -34 400 -54 68 -122 85 -210 54z"/>
<path d="M37663 2926 c-127 -59 -211 -323 -173 -546 11 -67 17 -79 54 -117 72
-72 137 -70 218 5 55 51 83 100 119 207 32 96 33 248 1 352 -18 59 -28 75 -56
92 -50 32 -104 34 -163 7z"/>
<path d="M13055 2520 c-11 -4 -49 -13 -85 -20 -117 -21 -189 -63 -216 -127
-33 -77 -5 -145 73 -179 61 -27 80 -29 135 -12 45 13 131 94 159 150 24 46 40
156 27 181 -9 18 -57 22 -93 7z"/>
<path d="M18970 2869 c-22 -45 -40 -90 -40 -98 0 -13 -2 -14 -9 -2 -7 10 -15
1 -31 -35 -37 -85 -53 -172 -54 -294 -1 -129 6 -150 71 -211 53 -51 100 -66
139 -46 73 39 148 144 191 270 25 75 28 95 28 222 0 117 -3 148 -19 183 -27
60 -71 84 -162 90 l-73 5 -41 -84z"/>
<path d="M20760 2500 c-176 -33 -221 -59 -236 -136 -8 -42 11 -143 30 -162 34
-35 181 -26 242 14 50 33 101 101 115 156 16 59 23 138 12 139 -38 7 -81 4
-163 -11z"/>
<path d="M25489 2956 c-50 -18 -87 -48 -125 -102 -34 -48 -68 -138 -60 -159 6
-17 407 -8 418 9 12 17 9 77 -6 117 -37 105 -141 167 -227 135z"/>
<path d="M29938 2515 c-3 -3 -47 -9 -99 -14 -128 -12 -199 -40 -239 -94 -32
-44 -37 -77 -19 -141 17 -60 49 -86 107 -86 122 0 192 30 230 98 17 32 62 198
62 231 0 11 -32 16 -42 6z"/>
<path d="M31920 2491 c-136 -7 -164 -21 -204 -104 -22 -43 -25 -61 -20 -99 14
-103 65 -133 173 -104 103 28 182 104 195 188 4 23 11 47 15 53 5 5 12 25 16
43 6 31 6 32 -27 30 -18 -1 -85 -4 -148 -7z"/>
<path d="M34689 2936 c-67 -46 -146 -163 -155 -229 l-3 -30 62 9 c34 5 123 9
197 9 74 0 141 4 148 8 7 5 12 33 12 76 0 54 -5 75 -23 102 -49 74 -169 102
-238 55z"/>
<path d="M36150 2938 c-112 -65 -176 -181 -201 -366 -6 -45 -9 -122 -7 -170 4
-99 22 -137 90 -186 130 -94 287 24 365 272 42 138 29 334 -28 407 -49 62
-152 82 -219 43z"/>
</g>
</svg>
